<svg width="25" height="24" viewBox="0 0 25 24" fill="none" xmlns="http://www.w3.org/2000/svg">
<path d="M13.2197 3.13014L13.2197 11.3901C13.2146 11.5228 13.159 11.6486 13.0641 11.7415C12.9693 11.8345 12.8425 11.8877 12.7097 11.8901C12.5789 11.8875 12.4542 11.8337 12.3626 11.7402C12.271 11.6467 12.2197 11.521 12.2197 11.3901V11.3901L12.2197 3.14014C12.2197 3.00753 12.2724 2.88035 12.3662 2.78658C12.4599 2.69282 12.5871 2.64014 12.7197 2.64014C12.8499 2.64259 12.9741 2.6947 13.0671 2.7858C13.16 2.8769 13.2146 3.00008 13.2197 3.13014V3.13014Z" fill="#BCD6D7"/>
<path d="M17.0899 8.64022C17.0893 8.77338 17.0394 8.90158 16.9499 9.00022L13.0399 12.8802C12.9951 12.9281 12.9408 12.9662 12.8806 12.9922C12.8204 13.0183 12.7555 13.0317 12.6899 13.0317C12.6244 13.0317 12.5595 13.0183 12.4993 12.9922C12.4391 12.9662 12.3848 12.9281 12.3399 12.8802L8.49995 9.00022C8.45309 8.95374 8.41589 8.89844 8.3905 8.83751C8.36512 8.77658 8.35205 8.71122 8.35205 8.64522C8.35205 8.57921 8.36512 8.51386 8.3905 8.45293C8.41589 8.392 8.45309 8.3367 8.49995 8.29022C8.5951 8.19797 8.72242 8.14638 8.85495 8.14638C8.98748 8.14638 9.1148 8.19797 9.20995 8.29022L12.7299 11.8402L16.2799 8.31022C16.3751 8.21797 16.5024 8.16638 16.6349 8.16638C16.7675 8.16638 16.8948 8.21797 16.9899 8.31022C17.0585 8.40633 17.0936 8.52225 17.0899 8.64022V8.64022Z" fill="#BCD6D7"/>
<path d="M21.4996 12.4101C21.4889 14.0565 21.0268 15.6685 20.1635 17.0705C19.3002 18.4725 18.0688 19.6108 16.6035 20.3616C15.1381 21.1123 13.4949 21.4467 11.8527 21.3283C10.2104 21.2099 8.63216 20.6432 7.28963 19.6901C6.33123 19.0078 5.51709 18.1429 4.89399 17.145C4.27089 16.1471 3.8511 15.0359 3.65875 13.8753C3.46639 12.7147 3.50527 11.5275 3.77313 10.3819C4.041 9.2364 4.53258 8.15507 5.21963 7.20008C5.2566 7.14634 5.30393 7.10051 5.35884 7.0653C5.41375 7.03008 5.47514 7.00618 5.5394 6.99501C5.60367 6.98383 5.66952 6.9856 5.7331 7.00021C5.79667 7.01482 5.85669 7.04197 5.90963 7.08008C5.96371 7.11798 6.00974 7.16621 6.04508 7.22199C6.08042 7.27777 6.10435 7.33999 6.11551 7.40508C6.12667 7.47016 6.12482 7.5368 6.11008 7.60117C6.09534 7.66553 6.068 7.72634 6.02963 7.78008C4.81315 9.49986 4.32407 11.63 4.66856 13.7082C5.01305 15.7864 6.16331 17.6448 7.86963 18.8801C9.35985 19.893 11.1484 20.3731 12.9455 20.2427C14.7426 20.1123 16.4431 19.3791 17.7715 18.1618C19.1 16.9444 19.9785 15.3143 20.2649 13.5353C20.5514 11.7564 20.2288 9.93286 19.3496 8.36008C19.284 8.24588 19.2661 8.1104 19.2998 7.98308C19.3335 7.85575 19.4161 7.74687 19.5296 7.68008C19.6454 7.61398 19.7824 7.5958 19.9113 7.62945C20.0403 7.66309 20.1509 7.74587 20.2196 7.86008C21.0472 9.23425 21.4894 10.806 21.4996 12.4101V12.4101Z" fill="#BCD6D7"/>
</svg>
