<svg width="47" height="47" viewBox="0 0 47 47" fill="none" xmlns="http://www.w3.org/2000/svg">
<g clip-path="url(#clip0_26_38)">
<mask id="mask0_26_38" style="mask-type:luminance" maskUnits="userSpaceOnUse" x="0" y="0" width="47" height="47">
<path d="M39.3149 34.5717H40.3149H39.3149ZM39.3149 34.5717H40.3149H39.3149ZM40.3149 34.5717H39.3149V36.5517H41.3149V34.5717H40.3149ZM39.3149 30.6217H40.3149H39.3149ZM39.3149 30.6217H40.3149H39.3149ZM40.3149 30.6217H39.3149V32.6017H41.3149V30.6217H40.3149ZM29.4349 31.3217L27.9048 29.8717L26.5248 31.3217L29.4349 34.0717L32.3448 31.3217L30.9648 29.8717L29.4349 31.3217ZM14.6548 31.9717L16.0248 33.4217L15.3348 32.6917L16.0248 33.4217L17.5549 31.9717L19.0848 33.4217L20.4549 31.9717L17.5549 29.2217L14.6548 31.9717ZM39.3149 26.6617H40.3149H39.3149ZM39.3149 26.6617H40.3149H39.3149ZM40.3149 26.6617H39.3149V28.6417H41.3149V26.6617H40.3149ZM24.5049 13.8417H23.5049H24.5049ZM16.5848 8.90167H22.5049V12.8417H16.5848V8.90167ZM24.5049 8.90167H30.4149V12.8417H24.5049V8.90167ZM14.5848 6.90167V14.8417H32.4149V13.8417H31.4149V12.8417V13.8417H32.4149V6.90167H14.5848ZM12.6349 18.8017H22.5049V44.5017H12.6349V18.8017ZM24.5049 18.8017H34.3749V44.5017H24.5049V18.8017ZM23.5049 17.8017H22.5049H23.5049ZM2.73486 2.97168H44.2649V44.5017H36.3749V16.8017H10.6349V44.5017H2.74487V2.97168H2.73486ZM0.734863 0.97168V46.5017H46.2649V45.5017H45.2649V44.5017V45.5017H46.2649V0.97168H0.734863Z" fill="white"/>
</mask>
<g mask="url(#mask0_26_38)">
<path d="M46.2649 0.97168H0.734863V46.5017H46.2649V0.97168Z" fill="url(#paint0_linear_26_38)"/>
</g>
</g>
<defs>
<linearGradient id="paint0_linear_26_38" x1="23.4958" y1="-546.377" x2="23.4958" y2="525.893" gradientUnits="userSpaceOnUse">
<stop stop-color="#C8C7CF"/>
<stop offset="1" stop-color="#CACBD3"/>
</linearGradient>
<clipPath id="clip0_26_38">
<rect width="45.53" height="45.53" fill="white" transform="translate(0.734863 0.97168)"/>
</clipPath>
</defs>
</svg>
