<svg width="54" height="55" viewBox="0 0 54 55" fill="none" xmlns="http://www.w3.org/2000/svg">
<g clip-path="url(#clip0_26_28)">
<mask id="mask0_26_28" style="mask-type:luminance" maskUnits="userSpaceOnUse" x="0" y="0" width="54" height="55">
<path d="M43.2625 45.4317L44.9625 43.7317L46.6625 45.4317L44.9625 47.1317L43.2625 45.4317ZM33.0825 48.8217L48.3525 33.5517L50.0525 35.2517L34.7825 50.5217L33.0825 48.8217ZM25.4525 49.6717L49.2025 25.9217L50.9025 27.6217L47.5125 31.0117L30.5424 47.9717L27.1525 51.3617L25.4525 49.6717ZM17.8225 19.9817L19.5225 18.2817L36.4824 35.2417L34.7924 36.9417L17.8225 19.9817ZM7.64248 9.80168L9.34249 8.10168L11.0424 9.80168L9.34249 11.5017L7.64248 9.80168ZM4.25246 19.9817L19.5225 4.71168L21.2225 6.41168L5.95248 21.6817L4.25246 19.9817ZM3.40249 27.6117L6.79244 24.2217L23.7525 7.26168L27.1425 3.87168L28.8425 5.57168L5.09249 29.3217L3.40249 27.6117ZM26.3025 1.32168L22.9125 4.71168L20.3725 2.17168C20.1325 1.94168 19.8325 1.82168 19.5225 1.82168C19.2125 1.82168 18.9124 1.94168 18.6724 2.17168L12.7324 8.11168L10.1925 5.57168C9.96247 5.34168 9.65249 5.22168 9.34249 5.22168C9.03249 5.22168 8.73245 5.34168 8.49245 5.57168L5.1025 8.96168C4.6325 9.43168 4.6325 10.1917 5.1025 10.6617L7.64248 13.2017L1.70248 19.1417C1.23248 19.6117 1.23248 20.3717 1.70248 20.8417L4.24245 23.3817L0.8525 26.7717C0.3825 27.2417 0.3825 28.0017 0.8525 28.4717L4.24245 31.8617C4.47245 32.0917 4.78249 32.2117 5.09249 32.2117C5.40249 32.2117 5.70247 32.0917 5.94247 31.8617L16.1225 21.6817L33.0825 38.6417L22.9025 48.8217C22.4325 49.2917 22.4325 50.0517 22.9025 50.5217L26.2924 53.9117C26.5224 54.1417 26.8325 54.2617 27.1425 54.2617C27.4525 54.2617 27.7525 54.1417 27.9925 53.9117L31.3825 50.5217L33.9224 53.0617C34.1524 53.2917 34.4625 53.4117 34.7725 53.4117C35.0825 53.4117 35.3825 53.2917 35.6225 53.0617L41.5625 47.1217L44.1025 49.6617C44.3325 49.8917 44.6425 50.0117 44.9525 50.0117C45.2625 50.0117 45.5625 49.8917 45.8025 49.6617L49.1925 46.2717C49.6625 45.8017 49.6625 45.0417 49.1925 44.5717L46.6525 42.0317L52.5925 36.0917C53.0625 35.6217 53.0625 34.8617 52.5925 34.3917L50.0424 31.8517L53.4325 28.4617C53.9025 27.9917 53.9025 27.2317 53.4325 26.7617L50.0424 23.3717C49.8124 23.1417 49.5025 23.0217 49.1925 23.0217C48.8825 23.0217 48.5825 23.1417 48.3425 23.3717L38.1724 33.5517L21.2125 16.5917L31.3925 6.41168C31.8625 5.94168 31.8625 5.18168 31.3925 4.71168L28.0025 1.32168C27.7625 1.09168 27.4525 0.97168 27.1525 0.97168C26.8525 0.97168 26.5325 1.09168 26.3025 1.32168Z" fill="white"/>
</mask>
<g mask="url(#mask0_26_28)">
<path d="M53.9124 0.97168H0.382324V54.2617H53.9124V0.97168Z" fill="url(#paint0_linear_26_28)"/>
</g>
</g>
<defs>
<linearGradient id="paint0_linear_26_28" x1="27.1432" y1="-55.7569" x2="27.1432" y2="1016.51" gradientUnits="userSpaceOnUse">
<stop stop-color="#C8C7CF"/>
<stop offset="1" stop-color="#CACBD3"/>
</linearGradient>
<clipPath id="clip0_26_28">
<rect width="53.285" height="53.29" fill="white" transform="translate(0.5 0.97168)"/>
</clipPath>
</defs>
</svg>
