<svg width="69" height="51" viewBox="0 0 69 51" fill="none" xmlns="http://www.w3.org/2000/svg">
<g clip-path="url(#clip0_26_50)">
<mask id="mask0_26_50" style="mask-type:luminance" maskUnits="userSpaceOnUse" x="48" y="34" width="15" height="15">
<path d="M48.445 40.4615H48.885C49.435 40.4615 49.885 40.9115 49.885 41.4615C49.885 42.0115 49.435 42.4615 48.885 42.4615H48.375C48.755 45.9415 51.705 48.6415 55.275 48.6415C58.855 48.6415 61.795 45.9415 62.175 42.4615H61.315C60.845 42.4615 60.445 42.1315 60.345 41.6915H60.225C60.225 43.0615 59.675 44.2915 58.775 45.1915C57.875 46.0915 56.645 46.6415 55.275 46.6415C53.905 46.6415 52.675 46.0915 51.775 45.1915C50.875 44.2915 50.325 43.0615 50.325 41.6915C50.325 40.3215 50.875 39.0915 51.775 38.2015C52.675 37.3015 53.905 36.7515 55.275 36.7515C56.645 36.7515 57.875 37.3015 58.775 38.2015C59.675 39.1015 60.225 40.3315 60.225 41.6915H60.345C60.325 41.6215 60.315 41.5415 60.315 41.4615C60.315 40.9115 60.765 40.4615 61.315 40.4615H62.115C61.535 37.2115 58.695 34.7515 55.285 34.7515C51.865 34.7515 49.025 37.2115 48.445 40.4615Z" fill="white"/>
</mask>
<g mask="url(#mask0_26_50)">
<path d="M62.185 34.7515H48.375V48.6415H62.185V34.7515Z" fill="url(#paint0_linear_26_50)"/>
</g>
<mask id="mask1_26_50" style="mask-type:luminance" maskUnits="userSpaceOnUse" x="34" y="30" width="33" height="3">
<path d="M64.9149 30.8919C64.3649 30.8919 63.9149 31.3419 63.9149 31.8919C63.9149 32.4419 64.3649 32.8919 64.9149 32.8919H66.795V31.3019C66.795 31.1619 66.785 31.0319 66.765 30.8919H64.9149ZM35.3149 30.6719C34.7649 30.6719 34.3149 31.1219 34.3149 31.6719C34.3149 32.2219 34.7649 32.6719 35.3149 32.6719H37.6049C38.1549 32.6719 38.6049 32.2219 38.6049 31.6719C38.6049 31.1219 38.1549 30.6719 37.6049 30.6719H35.3149Z" fill="white"/>
</mask>
<g mask="url(#mask1_26_50)">
<path d="M66.7849 30.6719H34.3149V32.8919H66.7849V30.6719Z" fill="url(#paint1_linear_26_50)"/>
</g>
<mask id="mask2_26_50" style="mask-type:luminance" maskUnits="userSpaceOnUse" x="0" y="0" width="26" height="51">
<path d="M12.5149 15.5917C13.5549 15.6917 14.2549 15.9317 14.7949 16.3117C15.3949 16.7317 15.8849 17.3917 16.3749 18.5517C17.3149 20.7917 19.1149 22.8017 20.6749 24.3117C22.1049 25.6917 23.3449 26.6217 23.5649 26.7817C23.8849 27.0517 23.9649 27.3117 23.9749 27.6517C23.9849 28.0617 23.7549 28.5617 23.4249 28.8517C23.1849 29.0617 22.9049 29.1717 22.5149 29.1717H22.5049C22.1249 29.1717 21.6549 29.0517 21.1549 28.7617C19.1649 27.6417 17.0049 25.6017 15.6749 23.7317L13.8649 21.2017L13.8349 46.6417C13.8349 47.1317 13.6449 47.5717 13.3249 47.8917C13.0049 48.2117 12.5849 48.4017 12.1149 48.4017C11.1749 48.4017 10.3949 47.6217 10.3949 46.6417H8.39487C8.39487 47.1317 8.19487 47.5717 7.88487 47.8917C7.56487 48.2117 7.14487 48.4017 6.67487 48.4017C5.73487 48.4017 4.95486 47.6217 4.95486 46.6417V31.7617H3.95486C3.26486 31.7617 2.86487 31.5617 2.61487 31.3217C2.37487 31.0817 2.22487 30.7517 2.22487 30.3017L2.20486 20.9717C2.20486 19.9417 2.31488 19.1017 2.51488 18.4317C2.81488 17.4217 3.27487 16.8017 3.91487 16.3517C4.49487 15.9517 5.29487 15.6817 6.33487 15.5817L9.41487 18.0017L12.5149 15.5917ZM12.2049 13.5717H11.8549L9.43488 15.4717L7.01488 13.5717H6.62486H6.59486H6.56487C5.60487 13.6317 4.72487 13.8017 3.92487 14.1217C2.72487 14.5917 1.74486 15.4417 1.12486 16.6217C0.504863 17.7917 0.234863 19.2417 0.234863 20.9917L0.254868 30.3217C0.254868 31.2317 0.584868 32.1417 1.25487 32.7817C1.71487 33.2217 2.30486 33.5317 2.98486 33.6717V46.6517C2.98486 48.7217 4.63486 50.4017 6.70486 50.4017C7.78486 50.4017 8.74487 49.9417 9.42487 49.2117C10.1049 49.9417 11.0649 50.4017 12.1449 50.4017C14.2049 50.4017 15.8549 48.7117 15.8549 46.6517L15.8749 27.0717C17.1649 28.4117 18.6649 29.6417 20.1849 30.5117C20.9349 30.9317 21.7349 31.1717 22.5249 31.1817C22.5349 31.1817 22.5349 31.1817 22.5449 31.1817C23.3549 31.1817 24.1649 30.9017 24.7849 30.3317C25.5149 29.6617 25.9749 28.7017 25.9749 27.6617C25.9849 26.8117 25.6149 25.8717 24.8149 25.2317L24.7949 25.2117L24.7749 25.1917L24.1849 26.0017L23.5449 26.7717L24.1849 26.0017L24.7749 25.1917L24.7249 25.1517C24.4549 24.9517 23.1749 23.9717 21.7849 22.6017C20.3949 21.2317 18.9049 19.4517 18.2149 17.7817C17.6549 16.4317 16.9549 15.3817 15.9449 14.6717C14.9349 13.9617 13.7249 13.6617 12.3049 13.5617H12.2749H12.2049V13.5717ZM6.70486 4.12167C7.41486 3.40167 8.37487 2.97168 9.44487 2.97168C10.5149 2.97168 11.4749 3.41167 12.1749 4.12167C12.8849 4.84167 13.3149 5.82169 13.3149 6.92169C13.3149 8.02169 12.8749 9.00168 12.1749 9.72168C11.4649 10.4417 10.5049 10.8717 9.44487 10.8717C8.37487 10.8717 7.41486 10.4317 6.70486 9.72168C5.99486 9.00168 5.56487 8.02169 5.56487 6.92169C5.55487 5.82169 5.99486 4.84167 6.70486 4.12167ZM9.44487 0.97168C7.81487 0.97168 6.33487 1.64168 5.27487 2.72168C4.21487 3.80168 3.55487 5.2917 3.55487 6.9317C3.55487 8.5617 4.21487 10.0617 5.27487 11.1317C6.33487 12.2117 7.81488 12.8817 9.43488 12.8817C11.0549 12.8817 12.5349 12.2117 13.5949 11.1317C14.6549 10.0517 15.3149 8.5617 15.3049 6.9317C15.3049 5.2917 14.6549 3.80168 13.5949 2.72168C12.5449 1.64168 11.0649 0.97168 9.44487 0.97168Z" fill="white"/>
</mask>
<g mask="url(#mask2_26_50)">
<path d="M25.9949 0.97168H0.234863V50.4117H25.9949V0.97168Z" fill="url(#paint2_linear_26_50)"/>
</g>
<mask id="mask3_26_50" style="mask-type:luminance" maskUnits="userSpaceOnUse" x="16" y="13" width="53" height="36">
<path d="M19.7549 34.2816C18.8349 34.2816 17.9449 34.4515 17.1349 34.7715C16.6149 34.9715 16.3649 35.5515 16.5649 36.0615C16.7149 36.4615 17.0949 36.7015 17.4949 36.7015C17.6149 36.7015 17.7349 36.6815 17.8549 36.6315C18.4449 36.4015 19.0849 36.2816 19.7549 36.2816C21.2049 36.2816 22.5049 36.8615 23.4549 37.8015C24.3249 38.6615 24.8849 39.8215 24.9749 41.1115C24.9349 41.2215 24.9149 41.3315 24.9149 41.4515C24.9149 41.5715 24.9349 41.6915 24.9749 41.8015C24.8849 43.0915 24.3249 44.2515 23.4549 45.1115C22.5049 46.0515 21.2049 46.6315 19.7549 46.6315C19.0349 46.6315 18.3449 46.4916 17.7249 46.2216C17.5949 46.1716 17.4649 46.1415 17.3349 46.1415C16.9449 46.1415 16.5749 46.3715 16.4149 46.7515C16.2049 47.2615 16.4349 47.8415 16.9449 48.0615C17.8049 48.4215 18.7649 48.6215 19.7549 48.6215C21.7449 48.6215 23.5549 47.8215 24.8649 46.5215C25.9449 45.4515 26.6949 44.0315 26.9149 42.4415H48.3849H48.8949C49.4449 42.4415 49.8949 41.9915 49.8949 41.4415C49.8949 40.8915 49.4449 40.4415 48.8949 40.4415H48.4449H26.9049C26.6849 38.8615 25.9349 37.4415 24.8549 36.3615C23.5549 35.0815 21.7449 34.2816 19.7549 34.2816ZM38.5949 13.0615H26.5449H26.5249C25.2149 13.0615 24.2049 13.2515 23.3749 13.5615C22.5349 13.8815 21.8949 14.3015 21.2549 14.7015C20.5149 15.1615 19.7149 15.7516 18.8749 16.4016C18.4449 16.7416 18.3649 17.3715 18.7049 17.8015C18.9049 18.0515 19.1949 18.1915 19.4949 18.1915C19.7149 18.1915 19.9249 18.1215 20.1049 17.9815C20.9049 17.3615 21.6749 16.8016 22.3149 16.4016C22.9749 15.9916 23.4749 15.6715 24.0749 15.4415C24.6749 15.2215 25.3949 15.0715 26.5449 15.0615H38.6049C40.1749 15.0615 41.2149 15.2515 42.2249 15.6815C43.2349 16.1115 44.2549 16.8315 45.6449 17.9915C47.8649 19.8315 54.8049 25.5215 54.8049 25.5215L54.9549 25.6415L64.6549 28.6715L64.7049 28.6815C65.2649 28.7915 65.7849 29.1315 66.1749 29.6115C66.4749 29.9815 66.6749 30.4215 66.7549 30.8815C66.7749 31.0215 66.7849 31.1516 66.7849 31.2916V32.8815V37.6315L66.7449 37.7315L64.3849 40.3915L64.2549 40.4515H62.1149H61.3149C60.7649 40.4515 60.3149 40.9015 60.3149 41.4515C60.3149 41.5315 60.3249 41.6115 60.3449 41.6815C60.4549 42.1215 60.8449 42.4515 61.3149 42.4515H62.1749H64.2449C64.8549 42.4515 65.4449 42.1915 65.8549 41.7315L68.2249 39.0715C68.5749 38.6815 68.7649 38.1715 68.7649 37.6415V31.3015C68.7649 30.2015 68.3649 29.1815 67.7149 28.3715C67.0749 27.5815 66.1849 26.9715 65.1449 26.7515L55.9049 23.8615C55.7249 23.7115 55.3849 23.4315 54.9349 23.0615C52.8749 21.3815 48.5549 17.8315 46.9049 16.4615C45.4649 15.2615 44.2949 14.4115 42.9949 13.8515C41.6949 13.2915 40.3149 13.0715 38.6149 13.0715H38.5949V13.0615Z" fill="white"/>
</mask>
<g mask="url(#mask3_26_50)">
<path d="M68.7948 13.0713H16.1948V48.6413H68.7948V13.0713Z" fill="url(#paint3_linear_26_50)"/>
</g>
<mask id="mask4_26_50" style="mask-type:luminance" maskUnits="userSpaceOnUse" x="22" y="17" width="28" height="12">
<path d="M33.165 19.7415H37.845H37.855C38.275 19.7415 38.585 19.7615 38.825 19.8015C39.195 19.8715 39.445 19.9614 39.865 20.2014C40.275 20.4414 40.825 20.8514 41.615 21.4414C42.305 21.9614 43.715 23.1015 44.955 24.1115C46.195 25.1215 47.285 26.0214 47.365 26.0914H47.355L47.365 26.1014L47.265 26.1515H33.155V19.7415H33.165ZM33.165 17.7415H27.135L27.025 17.7614C26.815 17.8114 26.265 17.9714 25.495 18.4514C24.725 18.9214 23.735 19.7014 22.685 20.9714C22.335 21.3914 22.385 22.0314 22.815 22.3814C23.005 22.5414 23.225 22.6115 23.455 22.6115C23.745 22.6115 24.025 22.4914 24.225 22.2514C25.145 21.1514 25.955 20.5214 26.535 20.1614C26.825 19.9814 27.065 19.8715 27.225 19.8015L27.385 19.7415H31.155V26.1515H28.005C27.455 26.1515 27.005 26.6015 27.005 27.1515C27.005 27.7015 27.455 28.1515 28.005 28.1515H31.155H47.265C48.115 28.1515 48.895 27.6615 49.225 26.8515V26.8415V26.8315C49.315 26.6015 49.365 26.3514 49.365 26.1014C49.365 25.5014 49.095 24.9314 48.635 24.5414C48.555 24.4714 47.465 23.5715 46.215 22.5515C44.965 21.5315 43.565 20.4015 42.805 19.8315C41.745 19.0415 41.085 18.5315 40.335 18.1815C39.965 18.0115 39.565 17.8814 39.155 17.8214C38.745 17.7514 38.325 17.7314 37.835 17.7314H33.165V17.7415Z" fill="white"/>
</mask>
<g mask="url(#mask4_26_50)">
<path d="M49.375 17.7412H22.335V28.1512H49.375V17.7412Z" fill="url(#paint4_linear_26_50)"/>
</g>
</g>
<defs>
<linearGradient id="paint0_linear_26_50" x1="55.3621" y1="-542.468" x2="55.3621" y2="529.803" gradientUnits="userSpaceOnUse">
<stop stop-color="#C8C7CF"/>
<stop offset="1" stop-color="#CACBD3"/>
</linearGradient>
<linearGradient id="paint1_linear_26_50" x1="50.5368" y1="-542.475" x2="50.5368" y2="529.81" gradientUnits="userSpaceOnUse">
<stop stop-color="#C8C7CF"/>
<stop offset="1" stop-color="#CACBD3"/>
</linearGradient>
<linearGradient id="paint2_linear_26_50" x1="13.1146" y1="-542.467" x2="13.1146" y2="529.803" gradientUnits="userSpaceOnUse">
<stop stop-color="#C8C7CF"/>
<stop offset="1" stop-color="#CACBD3"/>
</linearGradient>
<linearGradient id="paint3_linear_26_50" x1="42.4947" y1="-542.467" x2="42.4947" y2="529.802" gradientUnits="userSpaceOnUse">
<stop stop-color="#C8C7CF"/>
<stop offset="1" stop-color="#CACBD3"/>
</linearGradient>
<linearGradient id="paint4_linear_26_50" x1="35.954" y1="-542.468" x2="35.954" y2="529.802" gradientUnits="userSpaceOnUse">
<stop stop-color="#C8C7CF"/>
<stop offset="1" stop-color="#CACBD3"/>
</linearGradient>
<clipPath id="clip0_26_50">
<rect width="68.53" height="49.43" fill="white" transform="translate(0.234863 0.97168)"/>
</clipPath>
</defs>
</svg>
