<svg width="53" height="58" viewBox="0 0 53 58" fill="none" xmlns="http://www.w3.org/2000/svg">
<g clip-path="url(#clip0_26_45)">
<mask id="mask0_26_45" style="mask-type:luminance" maskUnits="userSpaceOnUse" x="0" y="0" width="53" height="58">
<path d="M51.445 51.9417C51.435 51.9417 51.425 51.9417 51.415 51.9417C50.585 51.9417 49.865 52.2417 49.355 52.6317C48.825 53.0317 48.475 53.4917 48.165 53.8817C47.865 54.2717 47.595 54.5817 47.335 54.7717C47.075 54.9617 46.865 55.0517 46.455 55.0617C46.045 55.0517 45.835 54.9617 45.575 54.7717C45.315 54.5817 45.055 54.2617 44.745 53.8817C44.435 53.5017 44.075 53.0317 43.555 52.6317C43.045 52.2317 42.325 51.9417 41.495 51.9417C41.485 51.9417 41.475 51.9417 41.465 51.9417C41.455 51.9417 41.445 51.9417 41.435 51.9417C40.605 51.9417 39.885 52.2417 39.375 52.6317C38.845 53.0317 38.495 53.4917 38.185 53.8817C37.885 54.2717 37.615 54.5817 37.355 54.7717C37.095 54.9617 36.885 55.0517 36.475 55.0617C36.065 55.0517 35.855 54.9617 35.595 54.7717C35.335 54.5817 35.075 54.2617 34.765 53.8817C34.455 53.5017 34.105 53.0317 33.575 52.6317C33.065 52.2317 32.345 51.9317 31.515 51.9317C31.505 51.9317 31.495 51.9317 31.485 51.9317C31.475 51.9317 31.465 51.9317 31.455 51.9317C30.625 51.9317 29.915 52.2317 29.395 52.6317C28.865 53.0317 28.515 53.4917 28.205 53.8817C27.905 54.2617 27.635 54.5817 27.375 54.7717C27.115 54.9617 26.905 55.0517 26.495 55.0617C26.085 55.0517 25.875 54.9617 25.615 54.7717C25.355 54.5817 25.095 54.2617 24.785 53.8817C24.475 53.5017 24.125 53.0317 23.595 52.6317C23.075 52.2317 22.365 51.9317 21.535 51.9317C21.525 51.9317 21.515 51.9317 21.505 51.9317C21.495 51.9317 21.485 51.9317 21.475 51.9317C20.645 51.9317 19.925 52.2317 19.415 52.6317C18.885 53.0317 18.535 53.4917 18.225 53.8817C17.925 54.2617 17.655 54.5817 17.395 54.7717C17.135 54.9617 16.925 55.0517 16.515 55.0617C16.115 55.0517 15.905 54.9617 15.635 54.7717C15.375 54.5817 15.115 54.2617 14.805 53.8817C14.495 53.5017 14.135 53.0317 13.615 52.6317C13.095 52.2317 12.385 51.9317 11.555 51.9317C11.545 51.9317 11.535 51.9317 11.525 51.9317C11.515 51.9317 11.505 51.9317 11.495 51.9317C10.665 51.9317 9.945 52.2317 9.435 52.6317C8.905 53.0317 8.555 53.4917 8.245 53.8817C7.945 54.2617 7.67501 54.5817 7.41501 54.7717C7.15501 54.9617 6.945 55.0517 6.535 55.0617C6.135 55.0517 5.92501 54.9617 5.66501 54.7717C5.40501 54.5817 5.14501 54.2617 4.83501 53.8817C4.52501 53.5017 4.175 53.0317 3.645 52.6317C3.125 52.2317 2.41501 51.9317 1.58501 51.9317C1.57501 51.9317 1.56501 51.9317 1.55501 51.9317H1.13499L0.835007 52.2417L0.125 52.9517L1.145 53.9517H1.55501C1.95501 53.9617 2.175 54.0517 2.435 54.2417C2.695 54.4317 2.955 54.7517 3.265 55.1317C3.575 55.5117 3.925 55.9817 4.455 56.3717C4.975 56.7717 5.685 57.0717 6.515 57.0717C6.525 57.0717 6.535 57.0717 6.545 57.0717C6.555 57.0717 6.565 57.0717 6.575 57.0717C7.405 57.0717 8.11499 56.7717 8.63499 56.3717C9.16499 55.9717 9.515 55.5117 9.825 55.1317C10.125 54.7417 10.395 54.4317 10.655 54.2417C10.915 54.0517 11.125 53.9617 11.535 53.9517C11.935 53.9617 12.155 54.0517 12.415 54.2417C12.675 54.4317 12.935 54.7517 13.245 55.1317C13.555 55.5117 13.915 55.9817 14.435 56.3717C14.945 56.7717 15.665 57.0717 16.495 57.0717C16.505 57.0717 16.515 57.0717 16.525 57.0717C16.535 57.0717 16.545 57.0717 16.555 57.0717C17.385 57.0717 18.095 56.7717 18.615 56.3717C19.145 55.9717 19.495 55.5117 19.805 55.1317C20.105 54.7517 20.375 54.4317 20.635 54.2417C20.895 54.0517 21.105 53.9617 21.515 53.9517C21.915 53.9617 22.135 54.0517 22.395 54.2417C22.645 54.4317 22.915 54.7517 23.225 55.1317C23.535 55.5117 23.895 55.9817 24.415 56.3717C24.935 56.7717 25.645 57.0717 26.475 57.0717C26.485 57.0717 26.495 57.0717 26.505 57.0717C26.515 57.0717 26.525 57.0717 26.535 57.0717C27.365 57.0717 28.085 56.7717 28.595 56.3717C29.125 55.9717 29.475 55.5117 29.785 55.1317C30.085 54.7417 30.355 54.4317 30.615 54.2417C30.875 54.0517 31.085 53.9617 31.495 53.9517C31.905 53.9617 32.115 54.0517 32.375 54.2417C32.625 54.4317 32.895 54.7517 33.205 55.1317C33.515 55.5117 33.875 55.9817 34.395 56.3717C34.915 56.7717 35.625 57.0717 36.455 57.0717C36.465 57.0717 36.475 57.0717 36.485 57.0717C36.495 57.0717 36.505 57.0717 36.515 57.0717C37.345 57.0717 38.065 56.7717 38.575 56.3717C39.105 55.9717 39.455 55.5117 39.765 55.1317C40.065 54.7517 40.335 54.4317 40.595 54.2417C40.855 54.0517 41.065 53.9617 41.475 53.9517C41.885 53.9617 42.095 54.0517 42.355 54.2417C42.605 54.4317 42.875 54.7517 43.185 55.1317C43.495 55.5117 43.855 55.9817 44.375 56.3717C44.885 56.7717 45.605 57.0617 46.435 57.0617C46.445 57.0617 46.455 57.0617 46.465 57.0617C46.475 57.0617 46.485 57.0617 46.495 57.0617C47.325 57.0617 48.045 56.7617 48.555 56.3717C49.085 55.9717 49.435 55.5117 49.745 55.1317C50.055 54.7417 50.315 54.4317 50.575 54.2417C50.835 54.0517 51.045 53.9617 51.455 53.9517H51.865L52.165 53.6517L52.875 52.9417L51.865 51.9217H51.445V51.9417ZM51.445 43.6117C51.435 43.6117 51.425 43.6117 51.415 43.6117C50.585 43.6117 49.865 43.9117 49.355 44.3117C48.825 44.7117 48.475 45.1717 48.165 45.5617C47.865 45.9417 47.595 46.2617 47.335 46.4517C47.075 46.6417 46.865 46.7317 46.455 46.7417C46.045 46.7317 45.835 46.6417 45.575 46.4517C45.315 46.2617 45.055 45.9417 44.745 45.5617C44.435 45.1817 44.075 44.7117 43.555 44.3117C43.045 43.9117 42.325 43.6117 41.495 43.6117C41.485 43.6117 41.475 43.6117 41.465 43.6117C41.455 43.6117 41.445 43.6117 41.435 43.6117C40.605 43.6117 39.885 43.9117 39.375 44.3117C38.845 44.7117 38.495 45.1717 38.185 45.5617C37.885 45.9417 37.615 46.2617 37.355 46.4517C37.095 46.6417 36.885 46.7317 36.475 46.7417C36.065 46.7317 35.855 46.6417 35.595 46.4517C35.335 46.2617 35.075 45.9417 34.765 45.5617C34.455 45.1817 34.105 44.7117 33.575 44.3117C33.065 43.9117 32.345 43.6117 31.515 43.6117C31.505 43.6117 31.495 43.6117 31.485 43.6117C31.475 43.6117 31.465 43.6117 31.455 43.6117C30.625 43.6117 29.905 43.9117 29.395 44.3117C28.865 44.7117 28.515 45.1717 28.205 45.5617C27.905 45.9517 27.635 46.2617 27.375 46.4517C27.115 46.6417 26.905 46.7317 26.495 46.7417C26.085 46.7317 25.875 46.6417 25.615 46.4517C25.355 46.2617 25.095 45.9417 24.785 45.5617C24.475 45.1817 24.125 44.7117 23.595 44.3117C23.075 43.9117 22.365 43.6117 21.535 43.6117C21.525 43.6117 21.515 43.6117 21.505 43.6117C21.495 43.6117 21.485 43.6117 21.475 43.6117C20.645 43.6117 19.925 43.9117 19.415 44.3117C18.885 44.7117 18.535 45.1717 18.225 45.5617C17.925 45.9517 17.655 46.2617 17.395 46.4517C17.135 46.6417 16.925 46.7317 16.515 46.7417C16.115 46.7317 15.905 46.6417 15.635 46.4517C15.375 46.2617 15.115 45.9417 14.805 45.5617C14.495 45.1817 14.135 44.7117 13.615 44.3117C13.095 43.9117 12.385 43.6117 11.555 43.6117C11.545 43.6117 11.535 43.6117 11.525 43.6117C11.515 43.6117 11.505 43.6117 11.495 43.6117C10.665 43.6117 9.945 43.9117 9.435 44.3117C8.905 44.7117 8.555 45.1717 8.245 45.5617C7.945 45.9517 7.67501 46.2617 7.41501 46.4517C7.15501 46.6417 6.945 46.7317 6.535 46.7417C6.135 46.7317 5.92501 46.6417 5.66501 46.4517C5.40501 46.2617 5.14501 45.9417 4.83501 45.5617C4.52501 45.1817 4.175 44.7117 3.645 44.3117C3.125 43.9117 2.41501 43.6117 1.58501 43.6117C1.57501 43.6117 1.56501 43.6117 1.55501 43.6117H1.13499L0.835007 43.9217L0.125 44.6317L1.145 45.6317H1.55501C1.95501 45.6417 2.175 45.7317 2.435 45.9217C2.695 46.1117 2.955 46.4317 3.265 46.8117C3.575 47.1917 3.925 47.6617 4.455 48.0617C4.975 48.4617 5.685 48.7517 6.515 48.7517C6.525 48.7517 6.535 48.7517 6.545 48.7517C6.555 48.7517 6.565 48.7517 6.575 48.7517C7.405 48.7517 8.11499 48.4517 8.63499 48.0617C9.16499 47.6617 9.515 47.2017 9.825 46.8217C10.125 46.4317 10.395 46.1217 10.655 45.9317C10.915 45.7417 11.125 45.6517 11.535 45.6417C11.935 45.6517 12.155 45.7417 12.415 45.9317C12.675 46.1217 12.935 46.4417 13.245 46.8217C13.555 47.2017 13.915 47.6717 14.435 48.0717C14.945 48.4717 15.665 48.7617 16.495 48.7617C16.505 48.7617 16.515 48.7617 16.525 48.7617C16.535 48.7617 16.545 48.7617 16.555 48.7617C17.385 48.7617 18.095 48.4617 18.615 48.0717C19.145 47.6717 19.495 47.2117 19.805 46.8217C20.105 46.4417 20.375 46.1217 20.635 45.9317C20.895 45.7417 21.105 45.6517 21.515 45.6417C21.915 45.6517 22.135 45.7417 22.395 45.9317C22.645 46.1217 22.915 46.4417 23.215 46.8217C23.525 47.2017 23.885 47.6717 24.405 48.0717C24.925 48.4717 25.635 48.7617 26.465 48.7617C26.475 48.7617 26.485 48.7617 26.495 48.7617C26.505 48.7617 26.515 48.7617 26.525 48.7617C27.355 48.7617 28.075 48.4617 28.585 48.0717C29.115 47.6717 29.465 47.2117 29.775 46.8217C30.075 46.4417 30.345 46.1217 30.605 45.9317C30.865 45.7417 31.075 45.6517 31.485 45.6417C31.895 45.6517 32.105 45.7417 32.365 45.9317C32.615 46.1217 32.885 46.4417 33.195 46.8217C33.505 47.2017 33.865 47.6717 34.385 48.0717C34.905 48.4717 35.615 48.7617 36.445 48.7617C36.455 48.7617 36.465 48.7617 36.475 48.7617C36.485 48.7617 36.495 48.7617 36.505 48.7617C37.335 48.7617 38.055 48.4617 38.565 48.0717C39.095 47.6717 39.445 47.2117 39.755 46.8317C40.055 46.4517 40.325 46.1317 40.585 45.9417C40.845 45.7517 41.055 45.6617 41.465 45.6517C41.875 45.6617 42.085 45.7517 42.345 45.9417C42.595 46.1317 42.865 46.4517 43.175 46.8317C43.485 47.2117 43.845 47.6817 44.365 48.0717C44.875 48.4717 45.595 48.7617 46.425 48.7617C46.435 48.7617 46.445 48.7617 46.455 48.7617C46.465 48.7617 46.475 48.7617 46.485 48.7617C47.315 48.7617 48.035 48.4617 48.545 48.0717C49.075 47.6717 49.425 47.2117 49.735 46.8317C50.045 46.4517 50.305 46.1317 50.565 45.9417C50.825 45.7517 51.035 45.6617 51.445 45.6517H51.855L52.155 45.3517L52.865 44.6417L51.855 43.6217H51.445V43.6117ZM26.505 32.1817H25.505V37.7617L25.805 38.0617L26.505 38.7617L27.215 38.0617L27.225 38.0517L27.515 37.7617V32.1817H26.505ZM16.965 28.2117H16.555L13.035 31.7417V32.1717V32.8317L13.655 33.0917L14.045 33.2617L14.435 33.0917H14.445L14.625 33.0117L17.995 29.6417V29.2117V28.2117H16.965ZM36.065 28.2117H35.065V29.2217V29.6317L38.435 33.0017L38.625 33.0817L39.015 33.2417L39.405 33.0817H39.415L40.025 32.8217V32.1417V31.7317L36.505 28.2017H36.065V28.2117ZM8.44501 18.6417L8.145 18.9417L7.435 19.6517L8.44501 20.6617H13.425L13.715 20.3717L13.725 20.3617L14.435 19.6517L13.425 18.6417H8.44501V18.6417ZM39.605 18.6417L39.305 18.9417L38.595 19.6517L39.605 20.6617H44.585L44.875 20.3717L44.885 20.3617L45.595 19.6517L44.585 18.6417H39.605V18.6417ZM16.175 19.6517C16.175 25.3717 20.805 30.0117 26.525 30.0117C32.245 30.0117 36.875 25.3717 36.875 19.6517H35.875H34.875C34.875 21.9617 33.945 24.0517 32.425 25.5617C30.915 27.0817 28.825 28.0117 26.525 28.0117C24.215 28.0117 22.135 27.0817 20.625 25.5617C19.115 24.0417 18.175 21.9617 18.175 19.6517C18.175 17.3417 19.105 15.2517 20.625 13.7417C22.135 12.2217 24.225 11.2917 26.525 11.2917C28.835 11.2917 30.915 12.2217 32.425 13.7417C33.935 15.2617 34.875 17.3417 34.875 19.6517H35.875H36.875C36.875 13.9317 32.245 9.29167 26.525 9.29167C20.805 9.29167 16.175 13.9317 16.175 19.6517ZM14.025 6.14168H13.025V7.15167V7.56168L16.385 10.9317L16.565 11.0117L16.965 11.1917L17.365 11.0217H17.375L17.975 10.7617V10.0917V9.68167L14.455 6.15167H14.025V6.14168ZM38.995 6.14168H38.575L35.055 9.67168V10.1017V10.7617L35.665 11.0217L36.065 11.1917L36.465 11.0117H36.475L36.645 10.9317L40.005 7.56168V7.13167V6.13167H38.995V6.14168ZM26.505 0.97168H25.505V6.55168L25.815 6.85167L26.515 7.55168L27.215 6.85167L27.225 6.84167L27.525 6.55168V0.97168H26.505V0.97168Z" fill="white"/>
</mask>
<g mask="url(#mask0_26_45)">
<path d="M52.875 0.97168H0.165039V57.0817H52.875V0.97168Z" fill="url(#paint0_linear_26_45)"/>
</g>
</g>
<defs>
<linearGradient id="paint0_linear_26_45" x1="26.5701" y1="-291.997" x2="26.5701" y2="780.273" gradientUnits="userSpaceOnUse">
<stop stop-color="#C8C7CF"/>
<stop offset="1" stop-color="#CACBD3"/>
</linearGradient>
<clipPath id="clip0_26_45">
<rect width="52.75" height="56.1" fill="white" transform="translate(0.125 0.97168)"/>
</clipPath>
</defs>
</svg>
