<svg width="58" height="59" viewBox="0 0 58 59" fill="none" xmlns="http://www.w3.org/2000/svg">
<g clip-path="url(#clip0_26_24)">
<g clip-path="url(#clip1_26_24)">
<path d="M17.35 52.4917H21.11V56.2517H17.35V52.4917ZM48.43 52.4917H52.19V56.2517H48.43V52.4917ZM17.35 46.7317H52.2V50.4917H47.44H22.1H17.34V46.7317M3.22 29.1417C3.7 28.6617 4.32 28.4317 4.95 28.4217C5.59 28.4217 6.21 28.6617 6.69 29.1417L17.07 39.5217C17.26 39.7117 17.51 39.8117 17.78 39.8117H53.2C53.87 39.8117 54.48 40.0817 54.93 40.5317C55.38 40.9817 55.65 41.5917 55.65 42.2617C55.65 42.9317 55.38 43.5417 54.93 43.9917C54.48 44.4417 53.87 44.7117 53.2 44.7117H16.4H16.39H16.31C16.17 44.7117 16.03 44.6917 15.91 44.6717L15.74 44.6217L15.72 44.6117C15.59 44.5817 15.5 44.5517 15.44 44.5317L15.36 44.4917L15.32 44.4717C15.05 44.3417 14.82 44.1917 14.63 44.0017L3.23 32.6017C2.74 32.1417 2.5 31.5117 2.5 30.8817C2.5 30.2417 2.74 29.6217 3.22 29.1417ZM15.9 22.6017C16.44 18.1117 18.49 14.0917 21.53 11.0517C24.27 8.31168 27.8 6.38168 31.75 5.62168C31.5 5.98168 31.26 6.37168 31.03 6.79168C29.96 8.75168 29.11 11.3817 28.51 14.4917C28.03 16.9817 27.72 19.7617 27.62 22.7317C25.96 21.5017 23.9 20.7617 21.67 20.7617C19.52 20.7717 17.53 21.4517 15.9 22.6017ZM43.35 22.7417C43.17 17.8317 42.44 13.4117 41.32 10.0317C40.73 8.26168 40.04 6.77168 39.22 5.63168C43.17 6.39168 46.7 8.32168 49.44 11.0617C52.48 14.1017 54.53 18.1217 55.07 22.6117C53.44 21.4617 51.46 20.7817 49.31 20.7817C47.07 20.7717 45.01 21.5117 43.35 22.7417ZM29.62 22.6817C29.8 17.9817 30.51 13.7717 31.55 10.6617C32.15 8.86168 32.86 7.43168 33.58 6.52168C33.94 6.06168 34.29 5.74168 34.62 5.55168C34.94 5.35168 35.22 5.28168 35.49 5.28168C35.76 5.28168 36.04 5.36168 36.36 5.55168C36.92 5.89168 37.59 6.64168 38.2 7.76168C39.12 9.44168 39.94 11.9117 40.51 14.8817C40.96 17.2217 41.26 19.8617 41.36 22.6917C39.72 21.5017 37.7 20.7917 35.51 20.7817H35.49C33.28 20.7717 31.26 21.4917 29.62 22.6817ZM35.5 0.97168H35.48C35.22 0.97168 34.96 1.08168 34.77 1.26168C34.58 1.45168 34.47 1.71168 34.47 1.97168V3.30168C22.94 3.83168 13.76 13.3417 13.75 25.0017C13.75 25.4217 14.01 25.7917 14.41 25.9417C14.52 25.9817 14.64 26.0017 14.75 26.0017C15.04 26.0017 15.32 25.8717 15.51 25.6517C17 23.8917 19.19 22.7817 21.66 22.7717C24.13 22.7717 26.32 23.8917 27.81 25.6517C27.82 25.6617 27.82 25.6717 27.83 25.6717C27.86 25.7017 27.89 25.7317 27.92 25.7617L27.93 25.7717L27.94 25.7817L27.95 25.7917C28.13 25.9317 28.35 26.0117 28.58 26.0117C28.6 26.0117 28.63 26.0117 28.66 26.0117C28.93 25.9917 29.17 25.8617 29.35 25.6617C30.63 24.1517 32.43 23.1117 34.48 22.8517V37.8317H18.19L8.1 27.7317C7.23 26.8617 6.09 26.4317 4.95 26.4317C3.81 26.4317 2.67 26.8617 1.8 27.7317C0.93 28.5917 0.5 29.7417 0.5 30.8817C0.5 32.0217 0.93 33.1617 1.8 34.0317L13.2 45.4317C13.58 45.8117 14.01 46.0917 14.44 46.2917L14.55 46.3517L14.63 46.3917C14.85 46.4817 15.03 46.5317 15.17 46.5617L15.34 46.6117V51.4917V57.2517C15.34 57.5117 15.45 57.7717 15.63 57.9617C15.82 58.1517 16.07 58.2517 16.34 58.2517H22.1C22.36 58.2517 22.62 58.1417 22.81 57.9617C23 57.7717 23.1 57.5217 23.1 57.2517V52.4917H46.43V57.2517C46.43 57.5117 46.54 57.7717 46.72 57.9617C46.91 58.1517 47.16 58.2517 47.43 58.2517H53.19C53.45 58.2517 53.71 58.1417 53.9 57.9617C54.09 57.7717 54.19 57.5217 54.19 57.2517V51.4917V46.6217C56.16 46.1617 57.64 44.3917 57.64 42.2817C57.64 39.8217 55.64 37.8317 53.19 37.8317H36.5V22.8417C38.55 23.1017 40.35 24.1417 41.63 25.6517C41.64 25.6617 41.64 25.6717 41.65 25.6717C41.68 25.7017 41.71 25.7317 41.74 25.7617L41.75 25.7717L41.76 25.7817L41.77 25.7917C41.95 25.9317 42.17 26.0117 42.39 26.0117C42.42 26.0117 42.44 26.0117 42.47 26.0117C42.74 25.9917 42.98 25.8617 43.16 25.6617C44.65 23.9017 46.84 22.7917 49.31 22.7817C51.78 22.7817 53.97 23.9017 55.46 25.6617C55.65 25.8917 55.93 26.0117 56.22 26.0117C56.34 26.0117 56.45 25.9917 56.56 25.9517C56.95 25.8017 57.22 25.4317 57.22 25.0117C57.22 13.3517 48.03 3.83168 36.5 3.31168V1.97168C36.5 1.71168 36.39 1.45168 36.21 1.26168C36.02 1.08168 35.76 0.97168 35.5 0.97168Z" fill="#CACBD3"/>
</g>
</g>
<defs>
<clipPath id="clip0_26_24">
<rect width="57.15" height="57.27" fill="white" transform="translate(0.5 0.97168)"/>
</clipPath>
<clipPath id="clip1_26_24">
<rect width="57.15" height="57.27" fill="white" transform="translate(0.5 0.97168)"/>
</clipPath>
</defs>
</svg>
