<svg width="63" height="59" viewBox="0 0 63 59" fill="none" xmlns="http://www.w3.org/2000/svg">
<g clip-path="url(#clip0_26_29)">
<mask id="mask0_26_29" style="mask-type:luminance" maskUnits="userSpaceOnUse" x="4" y="36" width="55" height="4">
<path d="M5.63996 36.8115C4.98996 36.8115 4.45996 37.3315 4.45996 37.9815C4.45996 38.6315 4.98996 39.1515 5.63996 39.1515H57.34C57.99 39.1515 58.52 38.6215 58.52 37.9815C58.52 37.3315 57.99 36.8115 57.34 36.8115H5.63996Z" fill="white"/>
</mask>
<g mask="url(#mask0_26_29)">
<path d="M58.51 36.8115H4.45996V39.1615H58.51V36.8115Z" fill="url(#paint0_linear_26_29)"/>
</g>
<mask id="mask1_26_29" style="mask-type:luminance" maskUnits="userSpaceOnUse" x="39" y="43" width="15" height="3">
<path d="M40.6702 43.2715C40.0202 43.2715 39.4902 43.8015 39.4902 44.4515C39.4902 45.1015 40.0202 45.6315 40.6702 45.6315H52.0602C52.7102 45.6315 53.2302 45.1015 53.2302 44.4515C53.2302 43.8015 52.7002 43.2715 52.0602 43.2715H40.6702Z" fill="white"/>
</mask>
<g mask="url(#mask1_26_29)">
<path d="M53.2302 43.2715H39.4902V45.6215H53.2302V43.2715Z" fill="url(#paint1_linear_26_29)"/>
</g>
<mask id="mask2_26_29" style="mask-type:luminance" maskUnits="userSpaceOnUse" x="9" y="43" width="28" height="3">
<path d="M10.9303 43.2715C10.2803 43.2715 9.76025 43.8015 9.76025 44.4515C9.76025 45.1015 10.2903 45.6315 10.9303 45.6315H35.2603C35.9103 45.6315 36.4403 45.1015 36.4403 44.4515C36.4403 43.8015 35.9103 43.2715 35.2603 43.2715H10.9303Z" fill="white"/>
</mask>
<g mask="url(#mask2_26_29)">
<path d="M36.4305 43.2715H9.75049V45.6215H36.4305V43.2715Z" fill="url(#paint2_linear_26_29)"/>
</g>
<mask id="mask3_26_29" style="mask-type:luminance" maskUnits="userSpaceOnUse" x="14" y="49" width="15" height="4">
<path d="M15.6302 49.7314C14.9802 49.7314 14.4502 50.2615 14.4502 50.9015C14.4502 51.5515 14.9802 52.0815 15.6302 52.0815H27.0202C27.6702 52.0815 28.1902 51.5515 28.1902 50.9015C28.1902 50.2515 27.6702 49.7314 27.0202 49.7314H15.6302Z" fill="white"/>
</mask>
<g mask="url(#mask3_26_29)">
<path d="M28.1902 49.7314H14.4502V52.0815H28.1902V49.7314Z" fill="url(#paint3_linear_26_29)"/>
</g>
<mask id="mask4_26_29" style="mask-type:luminance" maskUnits="userSpaceOnUse" x="31" y="49" width="18" height="4">
<path d="M32.6702 49.7314C32.0202 49.7314 31.4902 50.2615 31.4902 50.9015C31.4902 51.5515 32.0202 52.0815 32.6702 52.0815H47.3602C48.0102 52.0815 48.5302 51.5515 48.5302 50.9015C48.5302 50.2515 48.0002 49.7314 47.3602 49.7314H32.6702Z" fill="white"/>
</mask>
<g mask="url(#mask4_26_29)">
<path d="M48.5302 49.7314H31.4902V52.0815H48.5302V49.7314Z" fill="url(#paint4_linear_26_29)"/>
</g>
<mask id="mask5_26_29" style="mask-type:luminance" maskUnits="userSpaceOnUse" x="22" y="56" width="19" height="3">
<path d="M24.15 56.2017C23.5 56.2017 22.98 56.7317 22.98 57.3717C22.98 58.0217 23.51 58.5517 24.15 58.5517H38.84C39.49 58.5517 40.02 58.0217 40.02 57.3717C40.02 56.7217 39.49 56.2017 38.84 56.2017H24.15Z" fill="white"/>
</mask>
<g mask="url(#mask5_26_29)">
<path d="M40.0102 56.2017H22.9702V58.5517H40.0102V56.2017Z" fill="url(#paint5_linear_26_29)"/>
</g>
<mask id="mask6_26_29" style="mask-type:luminance" maskUnits="userSpaceOnUse" x="30" y="0" width="3" height="16">
<path d="M30.3203 2.14169V13.8917C30.3203 14.5417 30.8503 15.0617 31.4903 15.0617C32.1403 15.0617 32.6703 14.5317 32.6703 13.8917V2.14169C32.6703 1.49169 32.1403 0.97168 31.4903 0.97168C30.8403 0.97168 30.3203 1.50169 30.3203 2.14169Z" fill="white"/>
</mask>
<g mask="url(#mask6_26_29)">
<path d="M32.6703 0.97168H30.3203V15.0717H32.6703V0.97168Z" fill="url(#paint6_linear_26_29)"/>
</g>
<mask id="mask7_26_29" style="mask-type:luminance" maskUnits="userSpaceOnUse" x="0" y="30" width="16" height="3">
<path d="M2.1202 30.3516C1.4702 30.3516 0.950195 30.8816 0.950195 31.5316C0.950195 32.1816 1.4802 32.7015 2.1202 32.7015H13.8702C14.5202 32.7015 15.0402 32.1716 15.0402 31.5316C15.0402 30.8816 14.5202 30.3516 13.8702 30.3516H2.1202Z" fill="white"/>
</mask>
<g mask="url(#mask7_26_29)">
<path d="M15.0404 30.3516H0.94043V32.7015H15.0404V30.3516Z" fill="url(#paint7_linear_26_29)"/>
</g>
<mask id="mask8_26_29" style="mask-type:luminance" maskUnits="userSpaceOnUse" x="8" y="21" width="9" height="5">
<path d="M8.9504 22.2817C8.7104 22.8917 9.0104 23.5717 9.6204 23.8017L14.9104 25.8617C15.0504 25.9117 15.1904 25.9417 15.3404 25.9417C15.8104 25.9417 16.2504 25.6517 16.4404 25.1917C16.6804 24.5917 16.3804 23.9017 15.7704 23.6717L10.4804 21.6117C10.3404 21.5617 10.1904 21.5317 10.0504 21.5317C9.5804 21.5317 9.1304 21.8217 8.9504 22.2817Z" fill="white"/>
</mask>
<g mask="url(#mask8_26_29)">
<path d="M16.6702 21.5317H8.72021V25.9417H16.6702V21.5317Z" fill="url(#paint8_linear_26_29)"/>
</g>
<mask id="mask9_26_29" style="mask-type:luminance" maskUnits="userSpaceOnUse" x="21" y="8" width="5" height="9">
<path d="M21.9403 8.99185C21.3403 9.24185 21.0503 9.92185 21.3003 10.5219L23.3603 15.5119C23.5503 15.9619 23.9803 16.2419 24.4503 16.2419C24.6003 16.2419 24.7503 16.2119 24.9003 16.1519C25.5003 15.9019 25.7903 15.2219 25.5403 14.6219L23.4803 9.63185C23.2903 9.18185 22.8603 8.90186 22.3903 8.90186C22.2403 8.90186 22.0803 8.93185 21.9403 8.99185Z" fill="white"/>
</mask>
<g mask="url(#mask9_26_29)">
<path d="M25.7703 8.90186H21.0503V16.2419H25.7703V8.90186Z" fill="url(#paint9_linear_26_29)"/>
</g>
<mask id="mask10_26_29" style="mask-type:luminance" maskUnits="userSpaceOnUse" x="37" y="8" width="5" height="9">
<path d="M39.5001 9.65186L37.4401 14.9418C37.2001 15.5418 37.5001 16.2319 38.1101 16.4619C38.2501 16.5119 38.4001 16.5419 38.5401 16.5419C39.0101 16.5419 39.4601 16.2619 39.6401 15.7919L41.7001 10.5019C41.9401 9.89186 41.6401 9.21186 41.0301 8.98186C40.8901 8.93186 40.7501 8.90186 40.6001 8.90186C40.1301 8.90186 39.6801 9.19186 39.5001 9.65186Z" fill="white"/>
</mask>
<g mask="url(#mask10_26_29)">
<path d="M41.93 8.90186H37.21V16.5419H41.93V8.90186Z" fill="url(#paint10_linear_26_29)"/>
</g>
<mask id="mask11_26_29" style="mask-type:luminance" maskUnits="userSpaceOnUse" x="46" y="21" width="9" height="5">
<path d="M52.5103 21.6117L47.2203 23.6717C46.6103 23.9017 46.3203 24.5917 46.5503 25.1917C46.7303 25.6517 47.1703 25.9417 47.6403 25.9417C47.7803 25.9417 47.9303 25.9117 48.0703 25.8617L53.3603 23.8017C53.9603 23.5617 54.2603 22.8817 54.0303 22.2817C53.8503 21.8217 53.4103 21.5317 52.9303 21.5317C52.7903 21.5317 52.6503 21.5617 52.5103 21.6117Z" fill="white"/>
</mask>
<g mask="url(#mask11_26_29)">
<path d="M54.2703 21.5317H46.3203V25.9417H54.2703V21.5317Z" fill="url(#paint11_linear_26_29)"/>
</g>
<mask id="mask12_26_29" style="mask-type:luminance" maskUnits="userSpaceOnUse" x="47" y="30" width="16" height="3">
<path d="M49.1204 30.3516C48.4704 30.3516 47.9404 30.8816 47.9404 31.5316C47.9404 32.1816 48.4704 32.7015 49.1204 32.7015H60.8704C61.5204 32.7015 62.0504 32.1716 62.0504 31.5316C62.0504 30.8816 61.5204 30.3516 60.8704 30.3516H49.1204Z" fill="white"/>
</mask>
<g mask="url(#mask12_26_29)">
<path d="M62.0404 30.3516H47.9404V32.7015H62.0404V30.3516Z" fill="url(#paint12_linear_26_29)"/>
</g>
<mask id="mask13_26_29" style="mask-type:luminance" maskUnits="userSpaceOnUse" x="9" y="9" width="12" height="12">
<path d="M9.80008 9.8317C9.34008 10.2917 9.34008 11.0317 9.80008 11.4917L18.0301 19.7217C18.2601 19.9517 18.5601 20.0617 18.8601 20.0617C19.1601 20.0617 19.4601 19.9517 19.6901 19.7217C20.1501 19.2617 20.1501 18.5217 19.6901 18.0617L11.4601 9.8317C11.2301 9.6017 10.9301 9.4917 10.6301 9.4917C10.3301 9.4917 10.0301 9.6017 9.80008 9.8317Z" fill="white"/>
</mask>
<g mask="url(#mask13_26_29)">
<path d="M20.1398 9.4917H9.33984V20.0717H20.1398V9.4917Z" fill="url(#paint13_linear_26_29)"/>
</g>
<mask id="mask14_26_29" style="mask-type:luminance" maskUnits="userSpaceOnUse" x="42" y="9" width="12" height="12">
<path d="M51.3703 9.69165L43.0003 18.0617C42.5403 18.5217 42.5403 19.2616 43.0003 19.7216C43.2303 19.9516 43.5303 20.0617 43.8303 20.0617C44.1303 20.0617 44.4303 19.9516 44.6603 19.7216L53.0303 11.3517C53.4903 10.8917 53.4903 10.1516 53.0303 9.69165C52.8003 9.46165 52.5003 9.35165 52.2003 9.35165C51.9003 9.34165 51.6003 9.46165 51.3703 9.69165Z" fill="white"/>
</mask>
<g mask="url(#mask14_26_29)">
<path d="M53.49 9.3418H42.54V20.0618H53.49V9.3418Z" fill="url(#paint14_linear_26_29)"/>
</g>
<mask id="mask15_26_29" style="mask-type:luminance" maskUnits="userSpaceOnUse" x="17" y="17" width="29" height="18">
<path d="M17.3901 31.5219C17.3901 32.3219 17.4601 33.1219 17.5901 33.9119C17.6901 34.4819 18.1801 34.8919 18.7401 34.8919C18.8101 34.8919 18.8701 34.8819 18.9401 34.8719C19.5801 34.7619 20.0101 34.1519 19.9001 33.5119C19.7901 32.8619 19.7301 32.1919 19.7301 31.5219C19.7301 25.0419 25.0001 19.7719 31.4801 19.7719C37.9601 19.7719 43.2301 25.0419 43.2301 31.5219C43.2301 32.1919 43.1701 32.8619 43.0601 33.5119C42.9501 34.1519 43.3801 34.7619 44.0201 34.8719L44.2201 34.8919C44.7801 34.8919 45.2801 34.4919 45.3801 33.9119C45.5101 33.1319 45.5801 32.3219 45.5801 31.5219C45.5801 23.7419 39.2601 17.4219 31.4801 17.4219C23.7201 17.4219 17.3901 23.7519 17.3901 31.5219Z" fill="white"/>
</mask>
<g mask="url(#mask15_26_29)">
<path d="M45.5901 17.4219H17.3901V34.8819H45.5901V17.4219Z" fill="url(#paint15_linear_26_29)"/>
</g>
</g>
<defs>
<linearGradient id="paint0_linear_26_29" x1="31.4849" y1="-290.798" x2="31.4849" y2="781.474" gradientUnits="userSpaceOnUse">
<stop stop-color="#C8C7CF"/>
<stop offset="1" stop-color="#CACBD3"/>
</linearGradient>
<linearGradient id="paint1_linear_26_29" x1="46.3897" y1="-290.798" x2="46.3897" y2="781.474" gradientUnits="userSpaceOnUse">
<stop stop-color="#C8C7CF"/>
<stop offset="1" stop-color="#CACBD3"/>
</linearGradient>
<linearGradient id="paint2_linear_26_29" x1="23.1217" y1="-290.798" x2="23.1217" y2="781.474" gradientUnits="userSpaceOnUse">
<stop stop-color="#C8C7CF"/>
<stop offset="1" stop-color="#CACBD3"/>
</linearGradient>
<linearGradient id="paint3_linear_26_29" x1="21.4058" y1="-290.798" x2="21.4058" y2="781.474" gradientUnits="userSpaceOnUse">
<stop stop-color="#C8C7CF"/>
<stop offset="1" stop-color="#CACBD3"/>
</linearGradient>
<linearGradient id="paint4_linear_26_29" x1="40.0633" y1="-290.798" x2="40.0633" y2="781.474" gradientUnits="userSpaceOnUse">
<stop stop-color="#C8C7CF"/>
<stop offset="1" stop-color="#CACBD3"/>
</linearGradient>
<linearGradient id="paint5_linear_26_29" x1="31.4851" y1="-290.798" x2="31.4851" y2="781.474" gradientUnits="userSpaceOnUse">
<stop stop-color="#C8C7CF"/>
<stop offset="1" stop-color="#CACBD3"/>
</linearGradient>
<linearGradient id="paint6_linear_26_29" x1="31.4852" y1="-290.797" x2="31.4852" y2="781.473" gradientUnits="userSpaceOnUse">
<stop stop-color="#C8C7CF"/>
<stop offset="1" stop-color="#CACBD3"/>
</linearGradient>
<linearGradient id="paint7_linear_26_29" x1="8.00267" y1="-290.794" x2="8.00267" y2="781.465" gradientUnits="userSpaceOnUse">
<stop stop-color="#C8C7CF"/>
<stop offset="1" stop-color="#CACBD3"/>
</linearGradient>
<linearGradient id="paint8_linear_26_29" x1="12.7204" y1="-290.797" x2="12.7204" y2="781.473" gradientUnits="userSpaceOnUse">
<stop stop-color="#C8C7CF"/>
<stop offset="1" stop-color="#CACBD3"/>
</linearGradient>
<linearGradient id="paint9_linear_26_29" x1="23.4432" y1="-290.797" x2="23.4432" y2="781.472" gradientUnits="userSpaceOnUse">
<stop stop-color="#C8C7CF"/>
<stop offset="1" stop-color="#CACBD3"/>
</linearGradient>
<linearGradient id="paint10_linear_26_29" x1="39.5269" y1="-290.797" x2="39.5269" y2="781.473" gradientUnits="userSpaceOnUse">
<stop stop-color="#C8C7CF"/>
<stop offset="1" stop-color="#CACBD3"/>
</linearGradient>
<linearGradient id="paint11_linear_26_29" x1="50.3571" y1="-290.797" x2="50.3571" y2="781.473" gradientUnits="userSpaceOnUse">
<stop stop-color="#C8C7CF"/>
<stop offset="1" stop-color="#CACBD3"/>
</linearGradient>
<linearGradient id="paint12_linear_26_29" x1="55.0753" y1="-290.794" x2="55.0753" y2="781.465" gradientUnits="userSpaceOnUse">
<stop stop-color="#C8C7CF"/>
<stop offset="1" stop-color="#CACBD3"/>
</linearGradient>
<linearGradient id="paint13_linear_26_29" x1="14.7574" y1="-290.797" x2="14.7574" y2="781.473" gradientUnits="userSpaceOnUse">
<stop stop-color="#C8C7CF"/>
<stop offset="1" stop-color="#CACBD3"/>
</linearGradient>
<linearGradient id="paint14_linear_26_29" x1="47.9979" y1="-290.797" x2="47.9979" y2="781.473" gradientUnits="userSpaceOnUse">
<stop stop-color="#C8C7CF"/>
<stop offset="1" stop-color="#CACBD3"/>
</linearGradient>
<linearGradient id="paint15_linear_26_29" x1="31.485" y1="-290.797" x2="31.485" y2="781.473" gradientUnits="userSpaceOnUse">
<stop stop-color="#C8C7CF"/>
<stop offset="1" stop-color="#CACBD3"/>
</linearGradient>
<clipPath id="clip0_26_29">
<rect width="61.1" height="57.58" fill="white" transform="translate(0.950195 0.97168)"/>
</clipPath>
</defs>
</svg>
