<svg width="57" height="46" viewBox="0 0 57 46" fill="none" xmlns="http://www.w3.org/2000/svg">
<g clip-path="url(#clip0_26_51)">
<mask id="mask0_26_51" style="mask-type:luminance" maskUnits="userSpaceOnUse" x="0" y="0" width="57" height="46">
<path d="M20.8599 42.7317L19.9999 43.5917H11.6599L10.6799 42.7017C10.4899 42.5317 10.2499 42.4417 10.0099 42.4417C9.73989 42.4417 9.4699 42.5517 9.2699 42.7717C8.8999 43.1817 8.9299 43.8117 9.3399 44.1817L10.8899 45.5917H20.8299L22.2799 44.1517C22.6699 43.7617 22.6699 43.1317 22.2799 42.7417C22.0799 42.5417 21.8299 42.4517 21.5699 42.4517C21.3099 42.4417 21.0499 42.5317 20.8599 42.7317ZM48.6099 42.7317L47.7499 43.5917H39.4099L38.4299 42.7017C38.2399 42.5317 37.9999 42.4417 37.7599 42.4417C37.4899 42.4417 37.2199 42.5517 37.0199 42.7717C36.6499 43.1817 36.6799 43.8117 37.0899 44.1817L38.6399 45.5917H48.5799L50.0299 44.1517C50.4199 43.7617 50.4199 43.1317 50.0299 42.7417C49.8299 42.5417 49.5799 42.4517 49.3199 42.4517C49.0599 42.4417 48.7999 42.5317 48.6099 42.7317ZM28.1699 17.3617C27.6499 17.5417 27.3799 18.1217 27.5599 18.6417C27.7099 19.0517 28.0899 19.3117 28.4999 19.3117C28.6099 19.3117 28.7199 19.2917 28.8299 19.2517C29.0899 19.1617 29.3599 19.1117 29.6599 19.1117C31.0299 19.1117 32.1299 20.2117 32.1299 21.5617C32.1299 22.9117 31.0299 24.0117 29.6599 24.0217C28.2899 24.0217 27.1899 22.9217 27.1899 21.5617C27.1899 21.2717 27.2399 21.0017 27.3299 20.7417C27.5099 20.2217 27.2399 19.6517 26.7199 19.4617C26.6099 19.4217 26.4999 19.4017 26.3799 19.4017C25.9699 19.4017 25.5799 19.6617 25.4399 20.0717C25.2699 20.5417 25.1799 21.0417 25.1799 21.5617C25.1799 24.0217 27.1899 26.0117 29.6499 26.0117C32.1199 26.0117 34.1199 24.0217 34.1199 21.5617C34.1199 19.1017 32.1199 17.1117 29.6499 17.1117C29.1399 17.1017 28.6299 17.1917 28.1699 17.3617ZM24.6399 26.5517C23.3599 25.2717 22.5699 23.5117 22.5599 21.5617C22.5599 19.6117 23.3499 17.8517 24.6399 16.5717C25.9299 15.2917 27.6899 14.5017 29.6599 14.5017C31.6199 14.5017 33.3799 15.2917 34.6699 16.5617L34.6799 16.5717C34.6899 16.5817 34.6899 16.5817 34.6999 16.5917C35.9799 17.8717 36.7599 19.6217 36.7599 21.5717C36.7599 23.5117 35.9799 25.2717 34.6999 26.5517C34.6899 26.5617 34.6899 26.5617 34.6799 26.5717L34.6699 26.5817C33.3799 27.8517 31.6199 28.6417 29.6599 28.6417C27.6899 28.6217 25.9199 27.8317 24.6399 26.5517ZM28.6599 8.89169V12.5517C26.8999 12.7417 25.2899 13.4417 23.9699 14.4817L21.3699 11.8917C21.1699 11.7017 20.9199 11.6017 20.6599 11.6017C20.3999 11.6017 20.1499 11.7017 19.9499 11.8917C19.5599 12.2817 19.5599 12.9117 19.9499 13.3017L22.5499 15.8917C21.4999 17.2017 20.8099 18.8017 20.6099 20.5517H16.9299C16.3799 20.5517 15.9299 21.0017 15.9299 21.5517C15.9299 22.1017 16.3799 22.5517 16.9299 22.5517H20.6099C20.7999 24.3017 21.4999 25.9117 22.5499 27.2117L19.9499 29.8017C19.5599 30.1917 19.5599 30.8217 19.9499 31.2117C20.1399 31.4117 20.3999 31.5017 20.6599 31.5017C20.9099 31.5017 21.1699 31.4017 21.3699 31.2117L23.9699 28.6217C25.2799 29.6717 26.8899 30.3617 28.6599 30.5517V34.2117C28.6599 34.7617 29.1099 35.2117 29.6599 35.2117C30.2099 35.2117 30.6599 34.7617 30.6599 34.2117V30.5517C32.4199 30.3617 34.0299 29.6617 35.3399 28.6217L37.9399 31.2117C38.1399 31.4017 38.3899 31.5017 38.6499 31.5017C38.9099 31.5017 39.1599 31.4017 39.3599 31.2117C39.7499 30.8217 39.7499 30.1917 39.3599 29.8017L36.7599 27.2117C37.8099 25.9017 38.4999 24.3017 38.6999 22.5517H42.3799C42.9299 22.5517 43.3799 22.1017 43.3799 21.5517C43.3799 21.0017 42.9299 20.5517 42.3799 20.5517H38.6999C38.5099 18.8017 37.8099 17.1917 36.7599 15.8917L39.3599 13.3017C39.7499 12.9117 39.7499 12.2817 39.3599 11.8917C39.1599 11.6917 38.9099 11.6017 38.6499 11.6017C38.3999 11.6017 38.1399 11.7017 37.9399 11.8917L35.3399 14.4817C34.0299 13.4317 32.4199 12.7417 30.6499 12.5517V8.89169C30.6499 8.34169 30.1999 7.89169 29.6499 7.89169C29.0999 7.89169 28.6599 8.34169 28.6599 8.89169ZM48.3199 5.44168V36.5317C48.3199 37.0817 48.7699 37.5317 49.3199 37.5317C49.8699 37.5317 50.3199 37.0817 50.3199 36.5317V5.44168C50.3199 4.89168 49.8699 4.44168 49.3199 4.44168C48.7699 4.44168 48.3199 4.88168 48.3199 5.44168ZM2.8999 30.7717V27.3217L3.05991 27.1717H8.8399H10.1499V30.9317H3.05991L2.8999 30.7717ZM5.2099 16.8017H7.8299V25.1617H5.2099V16.8017ZM2.8999 14.6517V11.2017L3.05991 11.0517H4.21988H10.1599V14.8117H4.21988H3.05991L2.8999 14.6517ZM5.2099 4.28168C5.2099 3.92168 5.3499 3.60169 5.5899 3.36169C5.8299 3.12169 6.1599 2.98169 6.5199 2.98169H52.7799C53.1399 2.98169 53.4599 3.12169 53.7099 3.36169C53.9499 3.60169 54.0899 3.92168 54.0899 4.28168V37.6717C54.0899 38.0317 53.9499 38.3517 53.7099 38.5917C53.4699 38.8317 53.1399 38.9817 52.7799 38.9817H6.5199C6.1599 38.9817 5.8299 38.8317 5.5899 38.5917C5.3499 38.3517 5.2099 38.0317 5.2099 37.6717V32.9117H7.8399V36.5217C7.8399 37.0717 8.2899 37.5217 8.8399 37.5217C9.3899 37.5217 9.8399 37.0717 9.8399 36.5217V32.9117H12.1499V31.9117H11.1499V30.9117V31.9117H12.1499V25.1517H9.8399V16.7917H12.1499V15.7917H11.1499V14.7917V15.7917H12.1499V9.03168H9.8299C9.8399 8.98168 9.8399 8.93168 9.8399 8.88168V5.44168C9.8399 4.89168 9.3899 4.44168 8.8399 4.44168C8.2899 4.44168 7.8399 4.89168 7.8399 5.44168V8.89169C7.8399 8.94169 7.83988 8.99169 7.84988 9.04169H5.2099V4.28168ZM6.52988 0.981689C4.69988 0.981689 3.21988 2.46168 3.21988 4.28168V9.04169H3.05991C1.86991 9.04169 0.899902 10.0017 0.899902 11.1917V14.6417C0.899902 15.8317 1.86991 16.7917 3.05991 16.7917H3.21988V25.1517H3.05991C1.86991 25.1517 0.899902 26.1117 0.899902 27.3017V30.7517C0.899902 31.9417 1.86991 32.9017 3.05991 32.9017H3.21988V37.6617C3.21988 39.4917 4.70988 40.9617 6.52988 40.9617H52.7899C54.6099 40.9617 56.0999 39.4817 56.0999 37.6617V4.27167C56.0999 2.44167 54.6099 0.97168 52.7899 0.97168H6.52988V0.981689Z" fill="white"/>
</mask>
<g mask="url(#mask0_26_51)">
<path d="M56.0999 0.981445H0.899902V45.5915H56.0999V0.981445Z" fill="url(#paint0_linear_26_51)"/>
</g>
</g>
<defs>
<linearGradient id="paint0_linear_26_51" x1="28.4979" y1="-547.287" x2="28.4979" y2="524.982" gradientUnits="userSpaceOnUse">
<stop stop-color="#C8C7CF"/>
<stop offset="1" stop-color="#CACBD3"/>
</linearGradient>
<clipPath id="clip0_26_51">
<rect width="55.2" height="44.62" fill="white" transform="translate(0.899902 0.97168)"/>
</clipPath>
</defs>
</svg>
