<svg width="59" height="45" viewBox="0 0 59 45" fill="none" xmlns="http://www.w3.org/2000/svg">
<g clip-path="url(#clip0_26_49)">
<mask id="mask0_26_49" style="mask-type:luminance" maskUnits="userSpaceOnUse" x="4" y="9" width="51" height="26">
<path d="M29.3848 9.16162C29.2748 9.16162 28.5648 9.17163 27.4748 9.26163V10.2316C27.4748 10.8216 26.9948 11.3016 26.4048 11.3016C25.8148 11.3016 25.3348 10.8216 25.3348 10.2316V9.51163C21.4048 10.1016 15.4748 11.6816 11.4048 15.8916C8.4248 18.9716 6.94481 22.9516 7.00481 27.7216L5.06481 29.3416C4.82481 29.5416 4.6748 29.8516 4.6748 30.1616V33.8116C4.6748 34.4016 5.1548 34.8816 5.7448 34.8816H6.6048C6.90481 34.1716 7.0248 33.6616 7.0348 33.5916C7.1448 33.0816 7.58481 32.7316 8.08481 32.7316C8.15481 32.7316 8.22481 32.7416 8.29481 32.7516C8.87481 32.8716 9.24481 33.4316 9.13481 34.0116C9.12481 34.0616 9.0548 34.3916 8.8948 34.8716H50.1348C49.9748 34.3916 49.9048 34.0616 49.8948 34.0116C49.7748 33.4316 50.1548 32.8616 50.7348 32.7516C50.7948 32.7416 50.8548 32.7316 50.9148 32.7316H6.81481V30.6516L8.46481 29.2716H8.0748C7.4848 29.2716 7.00481 28.7916 7.00481 28.2016C7.00481 27.6116 7.4848 27.1316 8.0748 27.1316H9.13481C9.20481 23.2016 10.4748 19.9216 12.9248 17.3816C18.7148 11.3716 29.2748 11.2916 29.3748 11.2916H29.9548C30.0548 11.2916 40.6148 11.3716 46.4048 17.3816C49.0648 20.1416 50.3348 23.7716 50.1848 28.1716C50.1748 28.5016 50.3148 28.8216 50.5748 29.0316L52.5248 30.6616V32.7416H50.9648C51.4548 32.7616 51.8748 33.1016 51.9748 33.6016C51.9848 33.6716 52.1048 34.1816 52.4048 34.8816H53.5948C54.1848 34.8816 54.6648 34.4016 54.6648 33.8116V30.1616C54.6648 29.8416 54.5248 29.5416 54.2748 29.3416L52.3348 27.7216C52.3848 22.9516 50.9048 18.9716 47.9348 15.8916C43.8248 11.6316 37.8148 10.0716 33.8848 9.49161V10.2316C33.8848 10.8216 33.4048 11.3016 32.8148 11.3016C32.2248 11.3016 31.7448 10.8216 31.7448 10.2316V9.25162C30.7148 9.17162 30.0548 9.16162 29.9548 9.16162H29.3848V9.16162Z" fill="white"/>
</mask>
<g mask="url(#mask0_26_49)">
<path d="M54.675 9.16162H4.66504V34.8916H54.675V9.16162Z" fill="url(#paint0_linear_26_49)"/>
</g>
<mask id="mask1_26_49" style="mask-type:luminance" maskUnits="userSpaceOnUse" x="37" y="14" width="11" height="9">
<path d="M38.0649 15.5816C37.8449 16.1316 38.1049 16.7516 38.6549 16.9816C40.6949 17.8116 42.3549 18.8816 43.5849 20.1716C44.1549 20.7716 44.6449 21.4216 45.0349 22.1016C45.2349 22.4516 45.5949 22.6416 45.9649 22.6416C46.1449 22.6416 46.3249 22.6016 46.4949 22.5016C47.0049 22.2116 47.1949 21.5516 46.8949 21.0416C46.4149 20.2016 45.8249 19.4116 45.1249 18.6816C43.6749 17.1816 41.7749 15.9416 39.4549 14.9916C39.3249 14.9416 39.1849 14.9116 39.0549 14.9116C38.6349 14.9116 38.2349 15.1616 38.0649 15.5816Z" fill="white"/>
</mask>
<g mask="url(#mask1_26_49)">
<path d="M47.185 14.9116H37.835V22.6416H47.185V14.9116Z" fill="url(#paint1_linear_26_49)"/>
</g>
<mask id="mask2_26_49" style="mask-type:luminance" maskUnits="userSpaceOnUse" x="7" y="27" width="30" height="3">
<path d="M9.13488 27.1519H8.07488C7.48488 27.1519 7.00488 27.6318 7.00488 28.2218C7.00488 28.8118 7.48488 29.2918 8.07488 29.2918H8.46488H35.6449C36.2349 29.2918 36.7149 28.8118 36.7149 28.2218C36.7149 27.6318 36.2349 27.1519 35.6449 27.1519H9.13488Z" fill="white"/>
</mask>
<g mask="url(#mask2_26_49)">
<path d="M36.7149 27.1519H7.00488V29.2918H36.7149V27.1519Z" fill="url(#paint2_linear_26_49)"/>
</g>
<mask id="mask3_26_49" style="mask-type:luminance" maskUnits="userSpaceOnUse" x="25" y="5" width="9" height="7">
<path d="M28.305 5.21167C26.665 5.21167 25.335 6.55168 25.335 8.19168V9.52167V10.2417C25.335 10.8317 25.815 11.3117 26.405 11.3117C26.995 11.3117 27.475 10.8317 27.475 10.2417V9.27167V8.20166C27.475 7.74166 27.845 7.37167 28.305 7.37167H29.675C29.085 7.37167 28.605 6.89167 28.605 6.30167V5.23166H28.305V5.21167ZM30.745 5.21167V6.28168C30.745 6.87168 30.265 7.35168 29.675 7.35168H30.925C31.385 7.35168 31.755 7.72167 31.755 8.18167V9.25168V10.2317C31.755 10.8217 32.235 11.3017 32.825 11.3017C33.415 11.3017 33.895 10.8217 33.895 10.2317V9.49167V8.18167C33.895 6.54167 32.555 5.20166 30.915 5.20166H30.745V5.21167Z" fill="white"/>
</mask>
<g mask="url(#mask3_26_49)">
<path d="M33.8952 5.21191H25.3252V11.3119H33.8952V5.21191Z" fill="url(#paint3_linear_26_49)"/>
</g>
<mask id="mask4_26_49" style="mask-type:luminance" maskUnits="userSpaceOnUse" x="28" y="3" width="3" height="5">
<path d="M28.5947 3.12158V5.21158V6.28159C28.5947 6.87159 29.0747 7.35159 29.6647 7.35159C30.2547 7.35159 30.7347 6.87159 30.7347 6.28159V5.21158V3.12158H28.5947Z" fill="white"/>
</mask>
<g mask="url(#mask4_26_49)">
<path d="M30.7447 3.12158H28.5947V7.36157H30.7447V3.12158Z" fill="url(#paint4_linear_26_49)"/>
</g>
<mask id="mask5_26_49" style="mask-type:luminance" maskUnits="userSpaceOnUse" x="25" y="0" width="9" height="4">
<path d="M26.7848 0.97168C26.1948 0.97168 25.7148 1.45169 25.7148 2.04169C25.7148 2.63169 26.1948 3.11166 26.7848 3.11166H28.5948H30.7348H32.5448C33.1348 3.11166 33.6148 2.63169 33.6148 2.04169C33.6148 1.45169 33.1348 0.97168 32.5448 0.97168H26.7848Z" fill="white"/>
</mask>
<g mask="url(#mask5_26_49)">
<path d="M33.6248 0.97168H25.7148V3.11166H33.6248V0.97168Z" fill="url(#paint5_linear_26_49)"/>
</g>
<mask id="mask6_26_49" style="mask-type:luminance" maskUnits="userSpaceOnUse" x="0" y="32" width="59" height="13">
<path d="M50.9048 32.7515C50.8448 32.7515 50.7848 32.7615 50.7248 32.7715C50.1448 32.8915 49.7648 33.4514 49.8848 34.0314C49.8948 34.0814 49.9648 34.4115 50.1248 34.8915C50.6548 36.4915 52.2248 39.8615 56.1448 41.2015V42.3815H2.86484V41.2015C6.79484 39.8615 8.35484 36.4915 8.88484 34.8915C9.04484 34.4115 9.11484 34.0814 9.12484 34.0314C9.24484 33.4514 8.86484 32.8915 8.28484 32.7715C8.21484 32.7515 8.14484 32.7515 8.07484 32.7515C7.57484 32.7515 7.13484 33.1015 7.02484 33.6115C7.01484 33.6715 6.90484 34.1915 6.59484 34.9015C5.97484 36.3615 4.54484 38.6215 1.52484 39.3715C1.04484 39.4915 0.714844 39.9214 0.714844 40.4114V43.4615C0.714844 44.0515 1.19484 44.5314 1.78484 44.5314H57.2148C57.8048 44.5314 58.2848 44.0515 58.2848 43.4615V40.4114C58.2848 39.9214 57.9548 39.4915 57.4748 39.3715C54.4548 38.6215 53.0348 36.3615 52.4048 34.9015C52.1048 34.2015 51.9948 33.6815 51.9748 33.6215C51.8748 33.1215 51.4448 32.7815 50.9648 32.7615C50.9548 32.7615 50.9448 32.7615 50.9348 32.7615C50.9248 32.7515 50.9148 32.7515 50.9048 32.7515Z" fill="white"/>
</mask>
<g mask="url(#mask6_26_49)">
<path d="M58.2948 32.7515H0.714844V44.5414H58.2948V32.7515Z" fill="url(#paint6_linear_26_49)"/>
</g>
</g>
<defs>
<linearGradient id="paint0_linear_26_49" x1="29.7144" y1="-548.607" x2="29.7144" y2="523.663" gradientUnits="userSpaceOnUse">
<stop stop-color="#C8C7CF"/>
<stop offset="1" stop-color="#CACBD3"/>
</linearGradient>
<linearGradient id="paint1_linear_26_49" x1="42.5815" y1="-548.608" x2="42.5815" y2="523.663" gradientUnits="userSpaceOnUse">
<stop stop-color="#C8C7CF"/>
<stop offset="1" stop-color="#CACBD3"/>
</linearGradient>
<linearGradient id="paint2_linear_26_49" x1="21.8867" y1="-548.594" x2="21.8867" y2="523.652" gradientUnits="userSpaceOnUse">
<stop stop-color="#C8C7CF"/>
<stop offset="1" stop-color="#CACBD3"/>
</linearGradient>
<linearGradient id="paint3_linear_26_49" x1="29.7146" y1="-548.607" x2="29.7146" y2="523.663" gradientUnits="userSpaceOnUse">
<stop stop-color="#C8C7CF"/>
<stop offset="1" stop-color="#CACBD3"/>
</linearGradient>
<linearGradient id="paint4_linear_26_49" x1="29.7141" y1="-548.606" x2="29.7141" y2="523.661" gradientUnits="userSpaceOnUse">
<stop stop-color="#C8C7CF"/>
<stop offset="1" stop-color="#CACBD3"/>
</linearGradient>
<linearGradient id="paint5_linear_26_49" x1="29.7142" y1="-548.603" x2="29.7142" y2="523.659" gradientUnits="userSpaceOnUse">
<stop stop-color="#C8C7CF"/>
<stop offset="1" stop-color="#CACBD3"/>
</linearGradient>
<linearGradient id="paint6_linear_26_49" x1="29.4998" y1="-548.606" x2="29.4998" y2="523.661" gradientUnits="userSpaceOnUse">
<stop stop-color="#C8C7CF"/>
<stop offset="1" stop-color="#CACBD3"/>
</linearGradient>
<clipPath id="clip0_26_49">
<rect width="57.57" height="43.56" fill="white" transform="translate(0.714844 0.97168)"/>
</clipPath>
</defs>
</svg>
