<svg width="65" height="58" viewBox="0 0 65 58" fill="none" xmlns="http://www.w3.org/2000/svg">
<g clip-path="url(#clip0_26_25)">
<g clip-path="url(#clip1_26_25)">
<mask id="mask0_26_25" style="mask-type:luminance" maskUnits="userSpaceOnUse" x="0" y="0" width="65" height="58">
<path d="M57.88 52.3017C57.23 52.6617 56.58 53.1117 55.97 53.5317C55.36 53.9517 54.76 54.3717 54.23 54.6517C53.73 54.9317 53.3 55.0717 53.12 55.0717C53.11 55.0717 53.11 55.0717 53.1 55.0717C53.09 55.0717 53.09 55.0717 53.08 55.0717C52.9 55.0717 52.47 54.9317 51.97 54.6517C51.45 54.3617 50.85 53.9517 50.24 53.5317C49.62 53.1117 48.98 52.6617 48.33 52.3017C47.67 51.9517 47.01 51.6517 46.23 51.6317C45.45 51.6417 44.78 51.9417 44.12 52.3017C43.47 52.6617 42.82 53.1117 42.21 53.5317C41.6 53.9517 41 54.3717 40.48 54.6517C39.98 54.9317 39.55 55.0717 39.37 55.0717C39.36 55.0717 39.36 55.0717 39.35 55.0717C39.34 55.0717 39.34 55.0717 39.33 55.0717C39.15 55.0717 38.72 54.9317 38.22 54.6517C37.7 54.3617 37.1 53.9517 36.49 53.5317C35.88 53.1117 35.23 52.6617 34.58 52.3017C33.92 51.9517 33.26 51.6517 32.48 51.6317C31.7 51.6417 31.03 51.9417 30.38 52.3017C29.73 52.6617 29.08 53.1117 28.47 53.5317C27.86 53.9517 27.26 54.3717 26.74 54.6517C26.24 54.9317 25.81 55.0717 25.63 55.0717C25.62 55.0717 25.62 55.0717 25.61 55.0717C25.6 55.0717 25.6 55.0717 25.59 55.0717C25.41 55.0717 24.98 54.9317 24.48 54.6517C23.96 54.3617 23.36 53.9517 22.75 53.5317C22.13 53.1117 21.49 52.6617 20.84 52.3017C20.18 51.9517 19.52 51.6517 18.74 51.6317C17.96 51.6417 17.29 51.9417 16.64 52.3017C15.99 52.6617 15.34 53.1117 14.73 53.5317C14.12 53.9517 13.52 54.3717 13 54.6517C12.5 54.9317 12.07 55.0717 11.89 55.0717C11.88 55.0717 11.88 55.0717 11.87 55.0717C11.86 55.0717 11.86 55.0717 11.85 55.0717C11.67 55.0717 11.24 54.9317 10.74 54.6517C10.22 54.3617 9.62 53.9517 9 53.5317C8.39 53.1117 7.74 52.6617 7.09 52.3017C6.43 51.9517 5.77 51.6517 4.99 51.6317C2.5 51.6317 0.5 53.6217 0.5 56.0817C0.5 56.3417 0.61 56.6017 0.79 56.7917C0.98 56.9717 1.24 57.0817 1.5 57.0817H1.52C1.78 57.0817 2.04 56.9717 2.23 56.7917C2.42 56.6017 2.52 56.3517 2.52 56.0817C2.52 55.4117 2.79 54.8117 3.23 54.3717C3.67 53.9317 4.28 53.6617 4.94 53.6617C4.95 53.6617 4.95 53.6617 4.96 53.6617C5.14 53.6617 5.57 53.8017 6.07 54.0817C6.59 54.3717 7.19 54.7817 7.8 55.2017C8.41 55.6217 9.06 56.0717 9.71 56.4317C10.37 56.7817 11.03 57.0917 11.81 57.1017C12.59 57.0917 13.26 56.7917 13.91 56.4317C14.56 56.0717 15.21 55.6217 15.82 55.2017C16.43 54.7817 17.03 54.3717 17.55 54.0817C18.05 53.8017 18.48 53.6617 18.66 53.6617C18.67 53.6617 18.68 53.6617 18.68 53.6617C18.69 53.6617 18.69 53.6617 18.7 53.6617C18.88 53.6617 19.31 53.8017 19.81 54.0817C20.33 54.3717 20.93 54.7817 21.54 55.2017C22.15 55.6217 22.8 56.0717 23.45 56.4317C24.11 56.7817 24.77 57.0917 25.55 57.1017C26.33 57.0917 27 56.7917 27.65 56.4317C28.3 56.0717 28.95 55.6217 29.56 55.2017C30.17 54.7817 30.77 54.3717 31.29 54.0817C31.79 53.8017 32.22 53.6617 32.4 53.6617C32.41 53.6617 32.41 53.6617 32.42 53.6617C32.43 53.6617 32.43 53.6617 32.44 53.6617C32.62 53.6617 33.05 53.8017 33.55 54.0817C34.07 54.3717 34.67 54.7817 35.28 55.2017C35.9 55.6217 36.54 56.0717 37.19 56.4317C37.85 56.7817 38.51 57.0917 39.29 57.1017C40.07 57.0917 40.74 56.7917 41.39 56.4317C42.04 56.0717 42.69 55.6217 43.3 55.2017C43.91 54.7817 44.51 54.3717 45.03 54.0817C45.53 53.8017 45.96 53.6617 46.14 53.6617C46.15 53.6617 46.15 53.6617 46.16 53.6617C46.17 53.6617 46.17 53.6617 46.18 53.6617C46.36 53.6617 46.79 53.8017 47.29 54.0817C47.81 54.3717 48.41 54.7817 49.02 55.2017C49.63 55.6217 50.28 56.0717 50.93 56.4317C51.59 56.7817 52.25 57.0917 53.03 57.1017C53.81 57.0917 54.48 56.7917 55.13 56.4317C55.78 56.0717 56.43 55.6217 57.04 55.2017C57.65 54.7817 58.25 54.3717 58.78 54.0817C59.28 53.8017 59.71 53.6617 59.89 53.6617C59.9 53.6617 59.91 53.6617 59.91 53.6617C60.58 53.6617 61.18 53.9317 61.63 54.3717C62.07 54.8117 62.34 55.4117 62.34 56.0817C62.34 56.3417 62.45 56.6017 62.63 56.7917C62.82 56.9817 63.07 57.0817 63.34 57.0817H63.37C63.63 57.0817 63.89 56.9717 64.08 56.7917C64.27 56.6017 64.37 56.3517 64.37 56.0817C64.37 53.6217 62.37 51.6317 59.92 51.6317C59.2 51.6417 58.54 51.9417 57.88 52.3017ZM24.46 46.9217C23.94 46.6317 23.34 46.2217 22.73 45.8017C22.11 45.3817 21.47 44.9317 20.82 44.5717C20.74 44.5317 20.67 44.4917 20.59 44.4517V35.6317H44.36V44.4517C44.28 44.4917 44.21 44.5317 44.13 44.5717C43.48 44.9317 42.83 45.3817 42.22 45.8017C41.61 46.2217 41.01 46.6317 40.49 46.9217C39.99 47.2017 39.56 47.3417 39.38 47.3417C39.37 47.3417 39.37 47.3417 39.36 47.3417C39.35 47.3417 39.35 47.3417 39.34 47.3417C39.16 47.3417 38.73 47.2117 38.23 46.9217C37.71 46.6317 37.11 46.2217 36.49 45.8017C35.88 45.3817 35.23 44.9317 34.58 44.5717C33.92 44.2217 33.26 43.9117 32.48 43.9017C31.7 43.9117 31.03 44.2117 30.38 44.5717C29.73 44.9317 29.08 45.3817 28.47 45.8017C27.86 46.2217 27.26 46.6317 26.74 46.9217C26.24 47.2017 25.81 47.3417 25.63 47.3417C25.62 47.3417 25.62 47.3417 25.61 47.3417C25.6 47.3417 25.6 47.3417 25.59 47.3417C25.39 47.3417 24.96 47.2017 24.46 46.9217ZM20.58 25.3217H44.35V33.6017H20.58V25.3217ZM44.35 8.42168V23.2917H20.58V8.42168C20.58 6.92168 21.19 5.57168 22.17 4.58168C23.16 3.60168 24.51 2.99168 26.01 2.99168C27.51 2.99168 28.86 3.60168 29.85 4.58168C30.84 5.57168 31.44 6.92168 31.44 8.42168C31.44 8.68168 31.55 8.94168 31.73 9.13168C31.92 9.32168 32.17 9.42168 32.44 9.42168H32.46C32.72 9.42168 32.98 9.31168 33.17 9.13168C33.36 8.94168 33.46 8.69168 33.46 8.42168C33.46 4.31168 30.11 0.97168 26 0.97168C21.88 0.97168 18.54 4.31168 18.54 8.42168V43.9117C17.82 43.9517 17.2 44.2417 16.59 44.5717C15.94 44.9317 15.29 45.3817 14.68 45.8017C14.07 46.2217 13.47 46.6317 12.95 46.9217C12.45 47.2017 12.02 47.3417 11.84 47.3417C11.83 47.3417 11.83 47.3417 11.82 47.3417C11.81 47.3417 11.81 47.3417 11.8 47.3417C11.62 47.3417 11.19 47.2117 10.69 46.9217C10.17 46.6317 9.57 46.2217 8.95 45.8017C8.34 45.3817 7.69 44.9317 7.04 44.5717C6.38 44.2217 5.72 43.9117 4.94 43.9017C2.5 43.9017 0.5 45.8917 0.5 48.3517C0.5 48.6117 0.61 48.8717 0.79 49.0617C0.98 49.2517 1.23 49.3517 1.5 49.3517H1.52C1.78 49.3517 2.04 49.2417 2.23 49.0617C2.42 48.8717 2.52 48.6217 2.52 48.3517C2.52 47.6817 2.79 47.0817 3.23 46.6417C3.67 46.2017 4.28 45.9317 4.94 45.9317C4.95 45.9317 4.95 45.9317 4.96 45.9317C5.14 45.9317 5.57 46.0717 6.07 46.3517C6.59 46.6417 7.19 47.0517 7.8 47.4717C8.41 47.8917 9.06 48.3417 9.71 48.7017C10.37 49.0517 11.03 49.3617 11.81 49.3717C12.59 49.3617 13.26 49.0617 13.91 48.7017C14.56 48.3417 15.21 47.8917 15.82 47.4717C16.43 47.0517 17.03 46.6417 17.55 46.3517C18.05 46.0717 18.48 45.9317 18.66 45.9317C18.67 45.9317 18.68 45.9317 18.68 45.9317C18.69 45.9317 18.69 45.9317 18.7 45.9317C18.88 45.9317 19.31 46.0717 19.81 46.3517C20.33 46.6417 20.93 47.0517 21.54 47.4717C22.15 47.8917 22.8 48.3417 23.45 48.7017C24.11 49.0517 24.77 49.3517 25.55 49.3717C26.33 49.3617 27 49.0617 27.65 48.7017C28.3 48.3417 28.95 47.8917 29.56 47.4717C30.17 47.0517 30.77 46.6417 31.29 46.3517C31.79 46.0717 32.22 45.9317 32.4 45.9317C32.41 45.9317 32.41 45.9317 32.42 45.9317C32.43 45.9317 32.43 45.9317 32.44 45.9317C32.62 45.9317 33.05 46.0717 33.55 46.3517C34.07 46.6417 34.67 47.0517 35.28 47.4717C35.9 47.8917 36.54 48.3417 37.19 48.7017C37.85 49.0517 38.51 49.3617 39.29 49.3717C40.07 49.3617 40.74 49.0617 41.39 48.7017C42.04 48.3417 42.69 47.8917 43.3 47.4717C43.91 47.0517 44.51 46.6417 45.03 46.3517C45.53 46.0717 45.96 45.9317 46.14 45.9317C46.15 45.9317 46.15 45.9317 46.16 45.9317C46.17 45.9317 46.17 45.9317 46.18 45.9317C46.36 45.9317 46.79 46.0717 47.29 46.3517C47.81 46.6417 48.41 47.0517 49.02 47.4717C49.63 47.8917 50.28 48.3417 50.93 48.7017C51.59 49.0517 52.25 49.3617 53.03 49.3717C53.81 49.3617 54.48 49.0617 55.13 48.7017C55.78 48.3417 56.43 47.8917 57.04 47.4717C57.65 47.0517 58.25 46.6417 58.78 46.3517C59.28 46.0717 59.71 45.9317 59.89 45.9317C59.9 45.9317 59.91 45.9317 59.91 45.9317C60.58 45.9317 61.18 46.2017 61.63 46.6417C62.07 47.0817 62.34 47.6817 62.34 48.3517C62.34 48.6117 62.45 48.8717 62.63 49.0617C62.82 49.2517 63.07 49.3517 63.34 49.3517H63.37C63.63 49.3517 63.89 49.2417 64.08 49.0617C64.27 48.8717 64.37 48.6217 64.37 48.3517C64.37 45.8917 62.37 43.9017 59.92 43.9017C59.14 43.9117 58.47 44.2117 57.82 44.5717C57.17 44.9317 56.52 45.3817 55.91 45.8017C55.3 46.2217 54.7 46.6317 54.17 46.9217C53.67 47.2017 53.24 47.3417 53.06 47.3417C53.05 47.3417 53.05 47.3417 53.04 47.3417C53.03 47.3417 53.03 47.3417 53.02 47.3417C52.84 47.3417 52.41 47.2117 51.91 46.9217C51.39 46.6317 50.79 46.2217 50.18 45.8017C49.56 45.3817 48.92 44.9317 48.27 44.5717C47.65 44.2417 47.04 43.9517 46.32 43.9117V8.42168C46.32 6.92168 46.93 5.57168 47.91 4.58168C48.9 3.60168 50.25 2.99168 51.75 2.99168C53.25 2.99168 54.61 3.60168 55.59 4.58168C56.58 5.57168 57.18 6.92168 57.18 8.42168C57.18 8.68168 57.29 8.94168 57.47 9.13168C57.65 9.32168 57.91 9.42168 58.18 9.42168H58.2C58.46 9.42168 58.72 9.31168 58.91 9.13168C59.1 8.94168 59.2 8.69168 59.2 8.42168C59.2 4.31168 55.85 0.97168 51.74 0.97168C47.7 0.97168 44.35 4.31168 44.35 8.42168Z" fill="white"/>
</mask>
<g mask="url(#mask0_26_25)">
<path d="M64.43 0.97168H0.5V57.0917H64.43V0.97168Z" fill="url(#paint0_linear_26_25)"/>
</g>
</g>
</g>
<defs>
<linearGradient id="paint0_linear_26_25" x1="32.4536" y1="-57.7807" x2="32.4536" y2="1014.49" gradientUnits="userSpaceOnUse">
<stop stop-color="#C8C7CF"/>
<stop offset="1" stop-color="#CACBD3"/>
</linearGradient>
<clipPath id="clip0_26_25">
<rect width="63.93" height="56.12" fill="white" transform="translate(0.5 0.97168)"/>
</clipPath>
<clipPath id="clip1_26_25">
<rect width="63.93" height="56.12" fill="white" transform="translate(0.5 0.97168)"/>
</clipPath>
</defs>
</svg>
