<svg width="55" height="48" viewBox="0 0 55 48" fill="none" xmlns="http://www.w3.org/2000/svg">
<g clip-path="url(#clip0_26_47)">
<mask id="mask0_26_47" style="mask-type:luminance" maskUnits="userSpaceOnUse" x="0" y="0" width="55" height="48">
<path d="M2.85904 42.2517H12.699H33.749H43.599C42.329 44.0017 40.439 45.0417 38.379 45.0417H8.069C6.019 45.0417 4.12904 44.0017 2.85904 42.2517ZM15.049 29.5817H21.209V31.0217H15.049V29.5817ZM15.049 23.2917L17.599 22.0017H18.659L21.209 23.2917V27.5817H15.049V23.2917V23.2917ZM22.199 33.0217C22.749 33.0217 23.199 32.5717 23.199 32.0217V28.5817V22.6817C23.199 22.3017 22.989 21.9617 22.649 21.7917L19.339 20.1217C19.239 20.0717 19.129 20.0417 19.019 20.0217V15.9317H21.759H24.069H26.379H46.389C49.979 15.9317 52.899 19.2417 52.899 23.3117C52.899 27.3817 49.979 30.6817 46.389 30.6817H40.409C39.959 30.6817 39.559 30.9817 39.439 31.4217C38.459 35.0917 36.339 38.2117 33.439 40.2517H13.009C8.939 37.3817 6.41903 32.3017 6.41903 26.8917V15.9317H17.019V20.0617L16.899 20.1117L13.589 21.7817C13.249 21.9517 13.039 22.3017 13.039 22.6717V28.5717V32.0117C13.039 32.5617 13.489 33.0117 14.039 33.0117H22.199V33.0217ZM14.319 10.4717C12.509 8.44166 11.429 5.81168 11.219 2.97168H12.499C15.299 2.97168 17.949 4.20167 19.939 6.43167C21.749 8.46167 22.829 11.0917 23.039 13.9317H21.759C18.959 13.9317 16.319 12.7117 14.319 10.4717ZM35.639 2.97168H36.919C36.469 9.10168 31.919 13.9317 26.389 13.9317H25.109C25.559 7.81169 30.109 2.97168 35.639 2.97168ZM35.639 0.97168C30.449 0.97168 25.989 4.48168 24.069 9.47168C23.449 7.86168 22.559 6.38167 21.419 5.10167C19.039 2.44167 15.869 0.97168 12.489 0.97168H10.179C9.62898 0.97168 9.17898 1.42168 9.17898 1.97168C9.17898 5.68168 10.469 9.17168 12.819 11.8017C13.559 12.6317 14.379 13.3417 15.249 13.9317H5.40902C4.85902 13.9317 4.40902 14.3817 4.40902 14.9317V26.8917C4.40902 29.9917 5.13901 33.0417 6.51901 35.7117C7.40901 37.4217 8.53899 38.9517 9.87899 40.2417H1.11898C0.778984 40.2417 0.459018 40.4117 0.279018 40.7017C0.0990185 40.9817 0.0690112 41.3417 0.209011 41.6517C1.69901 44.9617 4.70899 47.0317 8.05899 47.0317H38.369C41.729 47.0317 44.739 44.9717 46.219 41.6517C46.359 41.3417 46.329 40.9817 46.149 40.7017C45.969 40.4117 45.649 40.2417 45.309 40.2417H36.549C38.649 38.2117 40.229 35.6117 41.139 32.6717H46.369C51.059 32.6717 54.879 28.4717 54.879 23.3017C54.879 18.1317 51.059 13.9317 46.369 13.9317H32.859C36.509 11.4917 38.959 7.04168 38.959 1.97168C38.959 1.42168 38.509 0.97168 37.959 0.97168H35.639V0.97168Z" fill="white"/>
</mask>
<g mask="url(#mask0_26_47)">
<path d="M54.9089 0.981445H0.0888672V47.0414H54.9089V0.981445Z" fill="url(#paint0_linear_26_47)"/>
</g>
<mask id="mask1_26_47" style="mask-type:luminance" maskUnits="userSpaceOnUse" x="40" y="18" width="11" height="10">
<path d="M42.0391 20.7217H46.399C47.619 20.7217 48.619 21.8817 48.619 23.3117C48.619 24.7417 47.629 25.9017 46.399 25.9017H42.0391V20.7217ZM41.0391 18.7217C40.4891 18.7217 40.0391 19.1717 40.0391 19.7217V26.9017C40.0391 27.4517 40.4891 27.9017 41.0391 27.9017H46.399C48.729 27.9017 50.619 25.8417 50.619 23.3117C50.619 20.7817 48.729 18.7217 46.399 18.7217H41.0391V18.7217Z" fill="white"/>
</mask>
<g mask="url(#mask1_26_47)">
<path d="M50.619 18.7217H40.0391V27.8917H50.619V18.7217Z" fill="url(#paint1_linear_26_47)"/>
</g>
</g>
<defs>
<linearGradient id="paint0_linear_26_47" x1="27.5669" y1="-302.307" x2="27.5668" y2="769.962" gradientUnits="userSpaceOnUse">
<stop stop-color="#C8C7CF"/>
<stop offset="1" stop-color="#CACBD3"/>
</linearGradient>
<linearGradient id="paint1_linear_26_47" x1="45.3666" y1="-302.307" x2="45.3666" y2="769.964" gradientUnits="userSpaceOnUse">
<stop stop-color="#C8C7CF"/>
<stop offset="1" stop-color="#CACBD3"/>
</linearGradient>
<clipPath id="clip0_26_47">
<rect width="54.7579" height="46.06" fill="white" transform="translate(0.121094 0.97168)"/>
</clipPath>
</defs>
</svg>
