<svg width="54" height="57" viewBox="0 0 54 57" fill="none" xmlns="http://www.w3.org/2000/svg">
<g clip-path="url(#clip0_26_31)">
<mask id="mask0_26_31" style="mask-type:luminance" maskUnits="userSpaceOnUse" x="0" y="0" width="54" height="57">
<path d="M6.72 25.5517C6.18 25.5517 5.68998 25.7317 5.28998 26.0217C4.67998 26.4517 4.25999 27.0717 3.95999 27.7817C3.66999 28.5017 3.50998 29.3217 3.50998 30.2017C3.50998 31.3717 3.79 32.4517 4.31 33.3017C4.57 33.7317 4.88999 34.1017 5.29999 34.3817C5.69999 34.6617 6.19998 34.8417 6.72998 34.8417C6.72998 34.8417 6.72999 34.8417 6.73999 34.8417C6.73999 34.8417 6.74 34.8417 6.75 34.8417C7.28 34.8417 7.77999 34.6617 8.17999 34.3817C8.78999 33.9517 9.20998 33.3317 9.50998 32.6217C9.79998 31.9017 9.95999 31.0817 9.95999 30.2017H8.95999H7.95999C7.95999 31.0417 7.73999 31.7917 7.45999 32.2617C7.31999 32.4917 7.15998 32.6617 7.03998 32.7417C6.90998 32.8317 6.83 32.8517 6.75 32.8517C6.67 32.8517 6.58999 32.8317 6.45999 32.7417C6.26999 32.6117 6.02 32.3117 5.84 31.8617C5.66 31.4117 5.53998 30.8317 5.53998 30.2017C5.53998 29.3617 5.75999 28.6117 6.04999 28.1417C6.18999 27.9117 6.35 27.7517 6.47 27.6617C6.6 27.5717 6.67998 27.5517 6.75998 27.5517C6.83998 27.5517 6.91999 27.5717 7.04999 27.6617C7.23999 27.7917 7.48998 28.0917 7.66998 28.5417C7.84998 28.9917 7.97 29.5717 7.97 30.2017H8.97H9.97C9.97 29.0317 9.68998 27.9517 9.16998 27.1017C8.90998 26.6717 8.58999 26.3017 8.17999 26.0217C7.75999 25.7317 7.26 25.5517 6.72 25.5517C6.73 25.5517 6.72 25.5517 6.72 25.5517ZM39.5 12.2717C38.4 12.2717 37.39 12.7317 36.68 13.4617C35.96 14.1917 35.52 15.2017 35.52 16.3117C35.52 17.4217 35.96 18.4317 36.68 19.1617C37.39 19.8917 38.4 20.3517 39.5 20.3517C40.6 20.3517 41.61 19.8917 42.32 19.1617C43.04 18.4317 43.48 17.4217 43.48 16.3117H42.48H41.48C41.48 16.8817 41.26 17.3917 40.89 17.7617C40.53 18.1317 40.04 18.3517 39.5 18.3517C38.96 18.3517 38.47 18.1317 38.11 17.7617C37.75 17.3917 37.52 16.8817 37.52 16.3117C37.52 15.7417 37.75 15.2317 38.11 14.8617C38.47 14.4917 38.96 14.2717 39.5 14.2717C40.04 14.2717 40.53 14.4917 40.89 14.8617C41.25 15.2317 41.48 15.7417 41.48 16.3117H42.48H43.48C43.48 15.2017 43.04 14.1917 42.32 13.4617C41.61 12.7317 40.6 12.2717 39.5 12.2717ZM35.02 53.9017C34.4 53.2617 34.01 52.3817 34.01 51.4017C34.01 50.4117 34.4 49.5417 35.02 48.9017C35.65 48.2617 36.5 47.8717 37.44 47.8717C38.39 47.8717 39.24 48.2617 39.86 48.9017C40.48 49.5417 40.87 50.4217 40.87 51.4017C40.87 52.3817 40.48 53.2617 39.86 53.9017C39.23 54.5417 38.38 54.9317 37.44 54.9317C36.49 54.9317 35.65 54.5417 35.02 53.9017ZM17.26 32.7017C16.63 32.0617 16.24 31.1817 16.24 30.2017C16.24 29.2117 16.63 28.3317 17.25 27.6917C17.87 27.0517 18.71 26.6717 19.66 26.6717H19.71C23.2 26.6717 26.36 28.1217 28.67 30.4617C30.87 32.7117 32.27 35.7717 32.39 39.1717V40.8617H32.4V41.9617C32.4 43.4817 32.79 44.9217 33.64 46.0417C33.86 46.3317 34.12 46.5917 34.4 46.8317C34.11 47.0317 33.85 47.2517 33.61 47.5017C32.63 48.5017 32.02 49.8817 32.02 51.4017C32.02 52.2917 32.23 53.1417 32.6 53.8917C31.19 53.2417 29.94 52.3117 28.9 51.1617C26.79 48.8317 25.52 45.5817 25.52 41.9617V39.6317C25.52 38.0117 24.87 36.5317 23.82 35.4617C22.77 34.3917 21.31 33.7217 19.71 33.7217C18.75 33.7317 17.89 33.3417 17.26 32.7017ZM30.08 29.0617C29.55 28.5217 28.98 28.0217 28.37 27.5617V24.7817L32.02 23.2417H32.37V32.0817C31.73 30.9817 30.96 29.9617 30.08 29.0617ZM2.50998 22.4817H10.93V37.9117H2.50998V22.4817ZM12.93 22.4817H26.37V26.3017C24.37 25.2517 22.1 24.6617 19.7 24.6617H19.65C18.15 24.6617 16.78 25.2917 15.81 26.2917C14.84 27.2917 14.24 28.6817 14.24 30.1917C14.24 33.2417 16.68 35.7217 19.7 35.7217C20.74 35.7217 21.69 36.1517 22.38 36.8617C22.68 37.1617 22.93 37.5217 23.11 37.9117H12.93V22.4817ZM30.22 16.7817V21.8317L28.36 22.6117V20.4817H21.45L30.22 16.7817ZM32.22 11.0217H46.77V21.2417H32.22V11.0217ZM39.5 3.47168L47.05 9.02168H31.96L39.5 3.47168ZM39.5 2.22168L38.91 3.03168L39.5 2.22168ZM38.91 1.42168L25.86 11.0217H30.22V14.6117L16.31 20.4817H11.92H0.5V39.9117H5.06V55.3117H7.06V39.9117H10.92H14.31V55.3117H16.31V39.9117H23.49V41.9617C23.49 42.1517 23.49 42.3417 23.5 42.5217H23.49V55.3117H25.49V49.8517C26.03 50.8117 26.66 51.7017 27.39 52.5017C29.85 55.2217 33.37 56.9217 37.42 56.9217H37.43C38.93 56.9217 40.3 56.2917 41.28 55.2917C42.26 54.2917 42.87 52.9017 42.87 51.3917C42.87 49.8717 42.27 48.4917 41.28 47.4917C40.3 46.4917 38.93 45.8617 37.43 45.8617C36.9 45.8617 36.48 45.7517 36.12 45.5817C35.58 45.3117 35.16 44.8717 34.85 44.2517C34.54 43.6317 34.37 42.8417 34.37 41.9517V39.6217C34.37 39.4617 34.37 39.2917 34.36 39.1317V23.2317H44.62V30.1017H35.96V32.1017H44.62V34.8017H35.96V36.8017H44.62V39.5017H35.96V41.5017H44.62V55.3017H46.62V23.2317H48.77V11.0117H53.13L39.49 0.97168L38.91 1.42168Z" fill="white"/>
</mask>
<g mask="url(#mask0_26_31)">
<path d="M53.1398 0.981445H0.509766V56.9315H53.1398V0.981445Z" fill="url(#paint0_linear_26_31)"/>
</g>
</g>
<defs>
<linearGradient id="paint0_linear_26_31" x1="26.8833" y1="-292.147" x2="26.8833" y2="780.122" gradientUnits="userSpaceOnUse">
<stop stop-color="#C8C7CF"/>
<stop offset="1" stop-color="#CACBD3"/>
</linearGradient>
<clipPath id="clip0_26_31">
<rect width="52.63" height="55.95" fill="white" transform="translate(0.5 0.97168)"/>
</clipPath>
</defs>
</svg>
