<svg width="57" height="58" viewBox="0 0 57 58" fill="none" xmlns="http://www.w3.org/2000/svg">
<g clip-path="url(#clip0_26_48)">
<mask id="mask0_26_48" style="mask-type:luminance" maskUnits="userSpaceOnUse" x="0" y="0" width="57" height="58">
<path d="M0.365234 39.3317L3.19525 50.8217C3.59525 52.4317 5.04526 53.5717 6.70526 53.5717H11.0652C11.6152 53.5717 12.0652 53.1217 12.0652 52.5717C12.0652 52.0217 11.6152 51.5717 11.0652 51.5717H6.70526C5.96526 51.5717 5.31525 51.0617 5.13525 50.3417L2.54523 39.8217L5.54523 36.1617L7.59521 44.5017C7.89521 45.7317 8.99525 46.5917 10.2552 46.5917H13.2752C13.8252 46.5917 14.2752 46.1417 14.2752 45.5917C14.2752 45.0417 13.8252 44.5917 13.2752 44.5917H10.2552C9.91525 44.5917 9.61522 44.3617 9.53522 44.0217L6.53522 31.7917L0.365234 39.3317ZM47.4652 44.0217C47.3852 44.3517 47.0852 44.5917 46.7452 44.5917H43.7252C43.1752 44.5917 42.7252 45.0417 42.7252 45.5917C42.7252 46.1417 43.1752 46.5917 43.7252 46.5917H46.7452C48.0052 46.5917 49.1052 45.7317 49.4052 44.5017L51.4553 36.1617L54.4553 39.8217L51.8652 50.3417C51.6852 51.0617 51.0452 51.5717 50.2952 51.5717H45.9352C45.3852 51.5717 44.9352 52.0217 44.9352 52.5717C44.9352 53.1217 45.3852 53.5717 45.9352 53.5717H50.2952C51.9552 53.5717 53.4052 52.4317 53.8052 50.8217L56.6353 39.3317L50.4652 31.8017L47.4652 44.0217ZM7.66522 30.4817L10.0252 40.1417C10.3252 41.3717 11.4252 42.2317 12.6852 42.2317H14.6052C15.1552 42.2317 15.6052 41.7817 15.6052 41.2317C15.6052 40.6817 15.1552 40.2317 14.6052 40.2317H12.6852C12.3452 40.2317 12.0452 40.0017 11.9652 39.6617L9.84521 30.9917L12.0153 28.3917L13.6552 34.7217C13.8652 35.5417 14.6053 36.1217 15.4553 36.1217H15.4752L16.5052 36.0917C17.0552 36.0717 17.4952 35.6117 17.4752 35.0617C17.4552 34.5217 17.0152 34.0917 16.4752 34.0917C16.4652 34.0917 16.4553 34.0917 16.4453 34.0917L15.5552 34.1117L12.9652 24.1117L7.66522 30.4817ZM41.4352 34.1217L40.5452 34.1017C40.5352 34.1017 40.5253 34.1017 40.5153 34.1017C39.9753 34.1017 39.5353 34.5317 39.5153 35.0717C39.4953 35.6217 39.9352 36.0817 40.4852 36.1017L41.5052 36.1317H41.5252H41.5452C42.3952 36.1217 43.1352 35.5517 43.3452 34.7317L44.9852 28.4017L47.1552 31.0017L45.0352 39.6717C44.9552 40.0017 44.6552 40.2417 44.3152 40.2417H42.3952C41.8452 40.2417 41.3952 40.6917 41.3952 41.2417C41.3952 41.7917 41.8452 42.2417 42.3952 42.2417H44.3152C45.5752 42.2417 46.6752 41.3817 46.9752 40.1517L49.3352 30.4917L44.0252 24.1417L41.4352 34.1217ZM37.1752 55.0717L19.7552 55.0217L14.9453 55.0117L24.6752 23.0517H32.2352L41.9952 55.0917L37.1752 55.0717ZM23.1953 21.0417L12.2452 56.9917L19.7452 57.0117L37.1652 57.0617L44.6953 57.0817L33.7252 21.0417H23.1953ZM14.2252 22.8217L16.4852 31.8717C16.5952 32.3217 17.0053 32.6317 17.4553 32.6317C17.5353 32.6317 17.6153 32.6217 17.6953 32.6017C18.2353 32.4717 18.5552 31.9217 18.4252 31.3917L16.4052 23.3017L17.9553 21.3817L18.7552 24.8817C18.8652 25.3417 19.2752 25.6617 19.7252 25.6617C19.7952 25.6617 19.8753 25.6517 19.9553 25.6417C20.4953 25.5217 20.8253 24.9817 20.7053 24.4417L18.9752 16.9417L14.2252 22.8217ZM36.2952 24.4317C36.1752 24.9717 36.5052 25.5117 37.0452 25.6317C37.1152 25.6517 37.1953 25.6517 37.2653 25.6517C37.7253 25.6517 38.1352 25.3417 38.2352 24.8717L39.0352 21.3717L40.5852 23.2917L38.5652 31.3817C38.4352 31.9217 38.7552 32.4617 39.2952 32.5917C39.3752 32.6117 39.4552 32.6217 39.5352 32.6217C39.9852 32.6217 40.3852 32.3217 40.5052 31.8617L42.7653 22.8117L38.0052 16.9217L36.2952 24.4317ZM24.2653 13.4817L23.3952 14.3517C23.0052 14.7417 23.0052 15.3717 23.3952 15.7617C23.5852 15.9617 23.8452 16.0517 24.1052 16.0517C24.3652 16.0517 24.6152 15.9517 24.8152 15.7617L25.6852 14.8917C26.0752 14.5017 26.0752 13.8717 25.6852 13.4717C25.4952 13.2817 25.2352 13.1817 24.9752 13.1817C24.7252 13.1817 24.4653 13.2817 24.2653 13.4817ZM27.4553 14.1817V15.9317C27.4553 16.4817 27.9053 16.9317 28.4553 16.9317C29.0053 16.9317 29.4553 16.4817 29.4553 15.9317V14.1817C29.4553 13.6317 29.0053 13.1817 28.4553 13.1817C27.9053 13.1817 27.4553 13.6317 27.4553 14.1817ZM31.2352 13.4817C30.8452 13.8717 30.8452 14.5017 31.2352 14.9017L32.1052 15.7717C32.2952 15.9617 32.5552 16.0617 32.8152 16.0617C33.0752 16.0617 33.3252 15.9617 33.5252 15.7717C33.9152 15.3817 33.9152 14.7517 33.5252 14.3617L32.6552 13.4917C32.4552 13.2917 32.2053 13.2017 31.9453 13.2017C31.6853 13.1817 31.4352 13.2817 31.2352 13.4817ZM28.4652 8.20169C29.4852 8.20169 30.3552 8.81168 30.7452 9.69168H26.1953C26.5753 8.82168 27.4452 8.21169 28.4652 8.20169ZM28.4652 0.97168H5.68524V23.0417H11.9152C12.4652 23.0417 12.9152 22.5917 12.9152 22.0417C12.9152 21.4917 12.4652 21.0417 11.9152 21.0417H7.68524V2.97168H27.4553V6.32169C25.4653 6.78169 23.9752 8.56169 23.9752 10.7017V11.7017H24.9752H32.9453V10.7017C32.9453 8.56169 31.4552 6.78169 29.4652 6.32169V2.97168H49.2452V21.0417H45.0153C44.4653 21.0417 44.0153 21.4917 44.0153 22.0417C44.0153 22.5917 44.4653 23.0417 45.0153 23.0417H51.2452V0.97168H28.4652V0.97168Z" fill="white"/>
</mask>
<g mask="url(#mask0_26_48)">
<path d="M56.6353 0.97168H0.365234V57.0917H56.6353V0.97168Z" fill="url(#paint0_linear_26_48)"/>
</g>
</g>
<defs>
<linearGradient id="paint0_linear_26_48" x1="28.4962" y1="-291.987" x2="28.4961" y2="780.283" gradientUnits="userSpaceOnUse">
<stop stop-color="#C8C7CF"/>
<stop offset="1" stop-color="#CACBD3"/>
</linearGradient>
<clipPath id="clip0_26_48">
<rect width="56.27" height="56.11" fill="white" transform="translate(0.365234 0.97168)"/>
</clipPath>
</defs>
</svg>
