<svg width="61" height="61" viewBox="0 0 61 61" fill="none" xmlns="http://www.w3.org/2000/svg">
<g clip-path="url(#clip0_26_42)">
<mask id="mask0_26_42" style="mask-type:luminance" maskUnits="userSpaceOnUse" x="0" y="1" width="61" height="60">
<path d="M43.841 46.396C44.2603 46.2085 44.6587 45.9585 45.0361 45.5938C45.4031 45.2292 45.6442 44.8228 45.8329 44.4061L57.4597 55.9602L55.4677 57.9397L43.841 46.396ZM39.7522 43.6456C39.6264 43.5726 39.4901 43.5309 39.3434 43.4997C36.607 42.2286 33.2941 41.218 30.2014 40.4367C32.4449 39.7178 34.5103 38.5509 36.2192 36.8527C37.928 35.1545 39.0918 33.0916 39.8256 30.8517C40.6119 33.9355 41.6393 37.2486 42.9289 39.9783C42.9603 40.1033 42.9917 40.2387 43.0547 40.3533C43.0651 40.3741 44.3966 42.6871 43.2434 43.8331C42.8974 44.1769 42.4466 44.2915 41.9853 44.2915C40.916 44.2915 39.7837 43.656 39.7522 43.6456ZM21.6569 38.6551C16.677 38.0508 11.781 35.7796 8.56246 32.5811C1.78983 25.8508 1.19223 14.1821 7.30438 8.10814C10.1455 5.28473 14.1924 3.89907 18.3964 3.89907C23.2505 3.89907 28.3037 5.74314 31.9417 9.35835C35.1603 12.5568 37.4458 17.4223 38.0538 22.371C38.6934 27.6324 37.4248 32.1436 34.4579 35.0816C31.9941 37.5195 28.4505 38.8114 24.2779 38.8114C23.4287 38.8114 22.5481 38.7593 21.6569 38.6551ZM5.52209 6.337C-1.64894 13.4632 -1.06182 26.5488 6.78018 34.3523C10.4705 38.0196 15.9222 40.5096 21.4053 41.166C26.9513 42.0724 38.4208 44.5624 41.9958 48.1047L54.5661 60.6068C54.8072 60.8465 55.1322 60.9715 55.4572 60.9715C55.7822 60.9715 56.0967 60.8465 56.3483 60.6068L60.1226 56.8562C60.6153 56.3665 60.6153 55.5747 60.1226 55.085L47.5523 42.5933C44.0297 39.0927 41.545 27.9032 40.6014 22.3294C39.9829 16.818 37.4458 11.317 33.7135 7.60805C29.5513 3.47191 23.89 1.36738 18.4173 1.36738C13.5842 1.34655 8.89792 2.99266 5.52209 6.337Z" fill="white"/>
</mask>
<g mask="url(#mask0_26_42)">
<path d="M60.6153 1.34668H-1.64893V60.9612H60.6153V1.34668Z" fill="url(#paint0_linear_26_42)"/>
</g>
<mask id="mask1_26_42" style="mask-type:luminance" maskUnits="userSpaceOnUse" x="40" y="0" width="21" height="21">
<path d="M42.9182 11.6089C44.1239 12.182 45.7594 13.0988 47.028 14.3594C48.286 15.6096 49.2086 17.2349 49.7852 18.4435C46.1368 18.1309 43.2222 15.2346 42.9182 11.6089ZM48.7998 12.5883C46.9651 10.765 44.5537 9.56692 43.1594 8.98349C43.8618 6.4518 45.8747 4.46187 48.4223 3.75341C49.0199 5.13907 50.2151 7.53532 52.0602 9.35855C53.8949 11.1818 56.3063 12.3799 57.7006 12.9738C56.9982 15.5055 54.9958 17.4954 52.4481 18.2038C51.8401 16.8078 50.6449 14.4115 48.7998 12.5883ZM53.832 7.58741C52.574 6.33719 51.6514 4.71191 51.0748 3.50337C54.7232 3.81592 57.6377 6.70184 57.9417 10.3379C56.7361 9.76487 55.1006 8.84805 53.832 7.58741ZM40.3706 10.9734C40.3706 16.4848 44.8787 20.9752 50.4352 20.9752C55.9813 20.9752 60.4998 16.4952 60.4998 10.9734C60.4998 5.46204 55.9917 0.97168 50.4352 0.97168C44.8787 0.97168 40.3706 5.46204 40.3706 10.9734Z" fill="white"/>
</mask>
<g mask="url(#mask1_26_42)">
<path d="M60.4893 0.97168H40.3706V20.9647H60.4893V0.97168Z" fill="url(#paint1_linear_26_42)"/>
</g>
</g>
<defs>
<linearGradient id="paint0_linear_26_42" x1="29.5334" y1="-59.5582" x2="29.5334" y2="1057.58" gradientUnits="userSpaceOnUse">
<stop stop-color="#C8C7CF"/>
<stop offset="1" stop-color="#CACBD3"/>
</linearGradient>
<linearGradient id="paint1_linear_26_42" x1="50.4426" y1="-59.5582" x2="50.4426" y2="1057.58" gradientUnits="userSpaceOnUse">
<stop stop-color="#C8C7CF"/>
<stop offset="1" stop-color="#CACBD3"/>
</linearGradient>
<clipPath id="clip0_26_42">
<rect width="60" height="60" fill="white" transform="translate(0.5 0.97168)"/>
</clipPath>
</defs>
</svg>
