<svg width="81" height="26" viewBox="0 0 81 26" fill="none" xmlns="http://www.w3.org/2000/svg">
<g clip-path="url(#clip0_26_37)">
<mask id="mask0_26_37" style="mask-type:luminance" maskUnits="userSpaceOnUse" x="0" y="0" width="81" height="26">
<path d="M26.4081 22.0217C25.8581 22.0217 25.4081 22.4717 25.4081 23.0217C25.4081 23.5717 25.8581 24.0217 26.4081 24.0217H54.9981C55.5481 24.0217 55.9981 23.5717 55.9981 23.0217C55.9981 22.4717 55.5481 22.0217 54.9981 22.0217H26.4081ZM18.8081 12.4917C17.0181 12.4917 15.3881 13.2017 14.2081 14.3617C13.0281 15.5117 12.2881 17.1217 12.2881 18.8917C12.2881 20.6617 13.0281 22.2717 14.2081 23.4217C15.3881 24.5717 17.0181 25.2817 18.8081 25.2817C20.5981 25.2817 22.2381 24.5717 23.4081 23.4217C24.5881 22.2717 25.3281 20.6617 25.3281 18.8917H24.3281H23.3281C23.3281 20.1017 22.8281 21.1917 22.0081 21.9917C21.1881 22.7917 20.0581 23.2817 18.7981 23.2917C17.5381 23.2917 16.4081 22.7917 15.5881 21.9917C14.7681 21.1917 14.2681 20.1017 14.2681 18.8917C14.2681 17.6817 14.7681 16.5917 15.5881 15.7917C16.4081 14.9917 17.5381 14.4917 18.7981 14.4917C20.0581 14.4917 21.1881 14.9917 22.0081 15.7917C22.8281 16.5917 23.3281 17.6817 23.3281 18.8917H24.3281H25.3281C25.3281 17.1217 24.5881 15.5117 23.4081 14.3617C22.2281 13.2117 20.5981 12.4917 18.8081 12.4917ZM62.9781 12.4917C61.1881 12.4917 59.5581 13.2017 58.3681 14.3617C57.1881 15.5117 56.4481 17.1217 56.4481 18.8917C56.4481 20.6617 57.1881 22.2717 58.3681 23.4217C59.5481 24.5717 61.1781 25.2817 62.9681 25.2817C64.7581 25.2817 66.3881 24.5717 67.5681 23.4217C68.7481 22.2717 69.4881 20.6617 69.4881 18.8917H68.4881H67.4881C67.4881 20.1017 66.9881 21.1917 66.1681 21.9917C65.3481 22.7917 64.2181 23.2817 62.9581 23.2917C61.6981 23.2917 60.5681 22.7917 59.7481 21.9917C58.9281 21.1917 58.4281 20.1017 58.4281 18.8917C58.4281 17.6817 58.9281 16.5917 59.7481 15.7917C60.5681 14.9917 61.6981 14.4917 62.9581 14.4917C64.2181 14.4917 65.3481 14.9917 66.1681 15.7917C66.9881 16.5917 67.4881 17.6817 67.4881 18.8917H68.4881H69.4881C69.4881 17.1217 68.7481 15.5117 67.5681 14.3617C66.4081 13.2117 64.7681 12.4917 62.9781 12.4917ZM60.1181 6.5217C53.1181 7.1317 48.7081 7.95169 48.3781 8.01169L27.6081 11.1117L24.6581 10.1017C24.5481 10.0617 24.4381 10.0517 24.3381 10.0517C23.9281 10.0517 23.5381 10.3117 23.3881 10.7317C23.2081 11.2517 23.4881 11.8217 24.0081 12.0017L27.1881 13.0817C27.2881 13.1217 27.3981 13.1317 27.5081 13.1317C27.5581 13.1317 27.6081 13.1317 27.6581 13.1217L48.4381 10.0217L53.0581 11.7317C50.1181 14.9717 46.2181 16.9017 42.0881 17.1617L30.1981 17.8917C29.6481 17.9217 29.2281 18.4017 29.2681 18.9517C29.2981 19.4817 29.7381 19.8917 30.2681 19.8917C30.2881 19.8917 30.3081 19.8917 30.3281 19.8917L42.2181 19.1617C47.3781 18.8417 52.1881 16.2117 55.5281 11.9017C55.6281 11.7817 55.6981 11.6317 55.7281 11.4617C55.8181 10.9817 55.5481 10.5117 55.0881 10.3417L52.4881 9.38168C54.4381 9.11168 57.0881 8.78169 60.2981 8.51169C60.8481 8.46169 61.2581 7.98167 61.2081 7.43167C61.1581 6.91167 60.7281 6.5217 60.2081 6.5217C60.1781 6.5217 60.1481 6.5217 60.1181 6.5217ZM19.8081 7.30167C5.15813 10.2517 1.03811 16.2417 0.908107 16.4617C0.698107 16.7817 0.688087 17.1917 0.888087 17.5217L2.7181 20.5717L1.20809 22.1917C0.938094 22.4817 0.868092 22.8917 1.01809 23.2617C1.16809 23.6217 1.51811 23.8617 1.90811 23.8817C1.91811 23.8817 5.8881 24.0217 8.6481 24.0217C9.3381 24.0217 9.94813 24.0117 10.4281 23.9917C10.6681 23.9817 10.8681 23.9717 11.0481 23.9417C11.1381 23.9317 11.2281 23.9117 11.3381 23.8917L11.5481 23.8117C11.6381 23.7617 11.7581 23.7117 11.9281 23.5217C12.2781 23.0917 12.2181 22.4617 11.7981 22.1117C11.6081 21.9617 11.3881 21.8817 11.1581 21.8817C11.0281 21.8817 10.8981 21.9117 10.7781 21.9617C10.6681 21.9717 10.4081 21.9917 10.1081 22.0017C9.71812 22.0117 9.21811 22.0217 8.65811 22.0217C7.30811 22.0217 5.63813 21.9917 4.30813 21.9517C4.26813 21.9517 4.22814 21.9517 4.18814 21.9517L4.70809 21.3917C5.00809 21.0617 5.0681 20.5817 4.8381 20.1917L2.97811 17.1017C4.22811 15.7117 8.77812 11.5517 20.3581 9.24167C20.4481 9.22167 20.5381 9.1917 20.6181 9.1517C29.1681 4.7617 38.0481 2.98172 47.2181 2.98172H47.2281C56.9281 2.98172 66.9381 4.99168 77.1281 8.06168L76.3381 9.85172C76.2781 9.98172 76.2581 10.1117 76.2581 10.2517V13.3117C76.2581 13.5717 76.3681 13.8317 76.5481 14.0217C76.7381 14.2117 76.9881 14.3117 77.2581 14.3117H77.7181L77.1881 15.4917C76.0781 17.9717 73.8481 19.5917 71.3581 19.8117C70.8081 19.8617 70.3981 20.3417 70.4481 20.8917C70.4981 21.4117 70.9281 21.8017 71.4381 21.8017C71.4681 21.8017 71.4981 21.8017 71.5281 21.8017C74.7881 21.5117 77.6181 19.4017 79.0081 16.3117L80.1681 13.7217C80.3081 13.4117 80.2781 13.0517 80.0981 12.7717C79.9181 12.4917 79.5981 12.3117 79.2581 12.3117H78.2581V10.4617L79.4081 7.8317C79.5181 7.5717 79.5181 7.27169 79.3981 7.01169C79.2781 6.75169 79.0581 6.55171 78.7881 6.47171C68.1181 3.18171 57.5481 0.97168 47.2281 0.97168C37.8081 0.97168 28.6281 2.81167 19.8081 7.30167Z" fill="white"/>
</mask>
<g mask="url(#mask0_26_37)">
<path d="M80.2682 0.97168H0.678223V25.2917H80.2682V0.97168Z" fill="url(#paint0_linear_26_37)"/>
</g>
</g>
<defs>
<linearGradient id="paint0_linear_26_37" x1="40.5261" y1="-567.588" x2="40.5261" y2="504.683" gradientUnits="userSpaceOnUse">
<stop stop-color="#C8C7CF"/>
<stop offset="1" stop-color="#CACBD3"/>
</linearGradient>
<clipPath id="clip0_26_37">
<rect width="79.5119" height="24.31" fill="white" transform="translate(0.744141 0.97168)"/>
</clipPath>
</defs>
</svg>
