<svg width="61" height="61" viewBox="0 0 61 61" fill="none" xmlns="http://www.w3.org/2000/svg">
<g clip-path="url(#clip0_26_41)">
<mask id="mask0_26_41" style="mask-type:luminance" maskUnits="userSpaceOnUse" x="0" y="0" width="61" height="61">
<path d="M43.1541 40.5725H52.1713V38.4343H43.1541V40.5725ZM9.58383 37.8355H18.601V35.6973H9.58383V37.8355ZM43.1541 35.291H52.1713V33.1527H43.1541V35.291ZM9.58383 32.8747H18.601V30.7365H9.58383V32.8747ZM43.1541 29.9988H52.1713V27.8605H43.1541V29.9988ZM12.1269 48.4414H16.0802V58.8441H12.1269V48.4414ZM5.03084 26.6524H23.1652V58.8334H18.2901V47.3722C18.2901 47.0943 18.168 46.8163 17.9681 46.6132C17.7571 46.41 17.4794 46.3031 17.1796 46.3031H11.0053C10.7165 46.3031 10.4278 46.4207 10.2168 46.6132C10.0058 46.8163 9.89477 47.0836 9.89477 47.3722V58.8441H5.01972V26.6524H5.03084ZM39.4228 24.311H55.9692V58.8334H39.4228V24.311ZM16.4911 12.6894H40.5444V22.1727H38.3123C38.0236 22.1727 37.7349 22.2903 37.5239 22.4827C37.324 22.6859 37.2018 22.9531 37.2018 23.2418V58.8334H25.3751V25.5832C25.3751 25.3052 25.2529 25.0273 25.053 24.8241C24.842 24.621 24.5644 24.5141 24.2646 24.5141H16.48V12.6894H16.4911ZM32.4045 3.10995H46.7077V22.1727H42.7765V11.6203C42.7765 11.3423 42.6544 11.0643 42.4545 10.8612C42.2435 10.6581 41.9659 10.5512 41.666 10.5512H32.4045V3.10995ZM31.294 0.97168C31.0053 0.97168 30.7165 1.08929 30.5055 1.28173C30.2945 1.48487 30.1835 1.75215 30.1835 2.04082V10.5512H15.3806C15.0919 10.5512 14.8032 10.6688 14.5922 10.8612C14.3812 11.0643 14.2701 11.3316 14.2701 11.6203V24.5141H3.92034C3.63161 24.5141 3.34286 24.6317 3.13187 24.8241C2.92087 25.0273 2.80985 25.2946 2.80985 25.5832V58.8334H0.5V60.9717H60.5V58.8334H58.1902V23.2418C58.1902 22.9638 58.068 22.6859 57.8681 22.4827C57.6571 22.2796 57.3795 22.1727 57.0797 22.1727H48.9176V2.04082C48.9176 1.76284 48.7954 1.48487 48.5955 1.28173C48.3845 1.07859 48.1069 0.97168 47.8071 0.97168H31.294Z" fill="white"/>
</mask>
<g mask="url(#mask0_26_41)">
<path d="M60.5 0.97168H0.5V60.9717H60.5V0.97168Z" fill="url(#paint0_linear_26_41)"/>
</g>
<mask id="mask1_26_41" style="mask-type:luminance" maskUnits="userSpaceOnUse" x="22" y="17" width="5" height="5">
<path d="M23.2873 17.6074C22.9985 17.6074 22.7098 17.725 22.4988 17.9175C22.2878 18.1206 22.1768 18.3879 22.1768 18.6766V20.6758C22.1768 20.9538 22.2989 21.2318 22.4988 21.4349C22.7098 21.6381 22.9985 21.745 23.2873 21.745H25.2639C25.5527 21.745 25.8414 21.6274 26.0524 21.4349C26.2634 21.2318 26.3744 20.9645 26.3744 20.6758H25.2639V19.6067V20.6758H26.3744V18.6766C26.3744 18.3986 26.2523 18.1206 26.0524 17.9175C25.8414 17.7143 25.5638 17.6074 25.2639 17.6074H23.2873Z" fill="white"/>
</mask>
<g mask="url(#mask1_26_41)">
<path d="M26.3744 17.6074H22.1768V21.745H26.3744V17.6074Z" fill="url(#paint1_linear_26_41)"/>
</g>
<mask id="mask2_26_41" style="mask-type:luminance" maskUnits="userSpaceOnUse" x="30" y="17" width="5" height="5">
<path d="M31.3942 17.6074C31.1055 17.6074 30.8167 17.725 30.6057 17.9175C30.3948 18.1206 30.2837 18.3879 30.2837 18.6766V20.6758C30.2837 20.9538 30.4059 21.2318 30.6057 21.4349C30.8167 21.6381 31.0944 21.745 31.3942 21.745H33.382C33.6707 21.745 33.9594 21.6274 34.1704 21.4349C34.3814 21.2318 34.4925 20.9645 34.4925 20.6758V18.6766C34.4925 18.3986 34.3703 18.1206 34.1704 17.9175C33.9594 17.7143 33.6707 17.6074 33.382 17.6074H31.3942Z" fill="white"/>
</mask>
<g mask="url(#mask2_26_41)">
<path d="M34.4925 17.6074H30.2837V21.745H34.4925V17.6074Z" fill="url(#paint2_linear_26_41)"/>
</g>
<mask id="mask3_26_41" style="mask-type:luminance" maskUnits="userSpaceOnUse" x="30" y="25" width="5" height="5">
<path d="M31.3942 25.6689C31.1055 25.6689 30.8167 25.7865 30.6057 25.979C30.3948 26.1821 30.2837 26.4494 30.2837 26.7381V28.7374C30.2837 29.0153 30.4059 29.2933 30.6057 29.4965C30.8167 29.6996 31.0944 29.8065 31.3942 29.8065H33.382C33.6707 29.8065 33.9594 29.6889 34.1704 29.4965C34.3814 29.2933 34.4925 29.026 34.4925 28.7374V26.7381C34.4925 26.4601 34.3703 26.1821 34.1704 25.979C33.9594 25.7759 33.6707 25.6689 33.382 25.6689H31.3942Z" fill="white"/>
</mask>
<g mask="url(#mask3_26_41)">
<path d="M34.4925 25.6689H30.2837V29.8065H34.4925V25.6689Z" fill="url(#paint3_linear_26_41)"/>
</g>
<mask id="mask4_26_41" style="mask-type:luminance" maskUnits="userSpaceOnUse" x="30" y="33" width="5" height="5">
<path d="M31.3942 33.7192C31.1055 33.7192 30.8167 33.8368 30.6057 34.0293C30.3948 34.2324 30.2837 34.5104 30.2837 34.7884V36.7877C30.2837 37.0656 30.4059 37.3436 30.6057 37.5468C30.8167 37.7499 31.0944 37.8568 31.3942 37.8568H33.382C33.6707 37.8568 33.9594 37.7392 34.1704 37.5468C34.3814 37.3436 34.4925 37.0763 34.4925 36.7877V34.7884C34.4925 34.5104 34.3703 34.2324 34.1704 34.0293C33.9594 33.8368 33.6707 33.7192 33.382 33.7192H31.3942Z" fill="white"/>
</mask>
<g mask="url(#mask4_26_41)">
<path d="M34.4925 33.7192H30.2837V37.8568H34.4925V33.7192Z" fill="url(#paint4_linear_26_41)"/>
</g>
<mask id="mask5_26_41" style="mask-type:luminance" maskUnits="userSpaceOnUse" x="30" y="41" width="5" height="5">
<path d="M31.3942 41.7808C31.1055 41.7808 30.8167 41.8984 30.6057 42.0908C30.3948 42.2833 30.2837 42.5612 30.2837 42.8499V44.8492C30.2837 45.1272 30.4059 45.4051 30.6057 45.6083C30.8167 45.8114 31.0944 45.9183 31.3942 45.9183H33.382C33.6707 45.9183 33.9594 45.8007 34.1704 45.6083C34.3814 45.4051 34.4925 45.1272 34.4925 44.8492V42.8499C34.4925 42.5719 34.3703 42.2939 34.1704 42.0908C33.9594 41.8877 33.6707 41.7808 33.382 41.7808H31.3942Z" fill="white"/>
</mask>
<g mask="url(#mask5_26_41)">
<path d="M34.4925 41.7808H30.2837V45.9183H34.4925V41.7808Z" fill="url(#paint5_linear_26_41)"/>
</g>
</g>
<defs>
<linearGradient id="paint0_linear_26_41" x1="30.5033" y1="-61.9242" x2="30.5033" y2="1084.48" gradientUnits="userSpaceOnUse">
<stop stop-color="#C8C7CF"/>
<stop offset="1" stop-color="#CACBD3"/>
</linearGradient>
<linearGradient id="paint1_linear_26_41" x1="24.3114" y1="-61.9242" x2="24.3114" y2="1084.48" gradientUnits="userSpaceOnUse">
<stop stop-color="#C8C7CF"/>
<stop offset="1" stop-color="#CACBD3"/>
</linearGradient>
<linearGradient id="paint2_linear_26_41" x1="32.4088" y1="-61.9242" x2="32.4088" y2="1084.48" gradientUnits="userSpaceOnUse">
<stop stop-color="#C8C7CF"/>
<stop offset="1" stop-color="#CACBD3"/>
</linearGradient>
<linearGradient id="paint3_linear_26_41" x1="32.4088" y1="-61.9239" x2="32.4088" y2="1084.48" gradientUnits="userSpaceOnUse">
<stop stop-color="#C8C7CF"/>
<stop offset="1" stop-color="#CACBD3"/>
</linearGradient>
<linearGradient id="paint4_linear_26_41" x1="32.4088" y1="-61.9242" x2="32.4088" y2="1084.48" gradientUnits="userSpaceOnUse">
<stop stop-color="#C8C7CF"/>
<stop offset="1" stop-color="#CACBD3"/>
</linearGradient>
<linearGradient id="paint5_linear_26_41" x1="32.4088" y1="-61.924" x2="32.4088" y2="1084.48" gradientUnits="userSpaceOnUse">
<stop stop-color="#C8C7CF"/>
<stop offset="1" stop-color="#CACBD3"/>
</linearGradient>
<clipPath id="clip0_26_41">
<rect width="60" height="60" fill="white" transform="translate(0.5 0.97168)"/>
</clipPath>
</defs>
</svg>
